<?xml version="1.0" encoding="UTF-8"?>
<svg version="1.1" xmlns="http://www.w3.org/2000/svg" width="6632" height="1082">
<path d="M0 0 C2188.56 0 4377.12 0 6632 0 C6632 357.06 6632 714.12 6632 1082 C4443.44 1082 2254.88 1082 0 1082 C0 724.94 0 367.88 0 0 Z " fill="#FEFEFE" transform="translate(0,0)"/>
<path d="M0 0 C26.73 0 53.46 0 81 0 C81.1814726 27.33221635 81.3284661 54.66393541 81.41449738 81.99660397 C81.45552734 94.69123536 81.51133707 107.38546239 81.60351562 120.07983398 C81.68393773 131.16056821 81.7350258 142.24100924 81.75270796 153.32202727 C81.76302349 159.17471501 81.78678705 165.02656494 81.84584045 170.87898064 C82.10413785 197.50830315 80.97184195 221.48267305 73 247 C72.47115845 248.83340064 71.94803286 250.66846763 71.43273926 252.50572205 C70.55331198 255.63967583 69.61620447 258.75015313 68.64672852 261.85766602 C67.80450542 264.64758962 67.02095091 267.45279051 66.23046875 270.2578125 C50.23876754 326.38460235 29.72394745 381.60461029 0 432 C-0.48355957 432.82113281 -0.96711914 433.64226562 -1.46533203 434.48828125 C-21.51257762 468.33661853 -46.7125153 501.73623636 -78 526 C-79.31266768 527.04145535 -80.62515487 528.08313822 -81.9375 529.125 C-112.35690836 553.06164089 -147.90143138 567.67745338 -186 574 C-186.77359863 574.13277344 -187.54719727 574.26554688 -188.34423828 574.40234375 C-212.86019335 578.40678514 -239.96964659 577.36289975 -264.38085938 573.41455078 C-266.97387777 573.00413456 -269.56862803 572.64756848 -272.171875 572.30859375 C-295.55551398 569.23788023 -318.37279344 564.32349416 -341.18865967 558.46678162 C-347.62168846 556.82423746 -354.08670327 555.33788974 -360.5625 553.875 C-367.3619382 552.33622024 -374.12405202 550.73192808 -380.85229492 548.90600586 C-392.89852894 545.63702783 -405.05132298 542.94100407 -417.25 540.3125 C-418.13502197 540.12013763 -419.02004395 539.92777527 -419.93188477 539.72958374 C-431.54245467 537.2128207 -443.15548054 535.05773839 -454.90689087 533.31253052 C-457.91837744 532.86287338 -460.92558505 532.38635007 -463.93359375 531.9140625 C-525.00013236 522.62571794 -585.87457292 527.93413204 -642 555 C-643.07435303 555.51046875 -643.07435303 555.51046875 -644.17041016 556.03125 C-705.5300102 585.26234116 -731.11552737 647.67342384 -752.74203491 708.60195923 C-755.71083116 717.00594267 -758.43113076 725.46611749 -761 734 C-761.25531494 734.82814209 -761.51062988 735.65628418 -761.77368164 736.50952148 C-781.78039109 801.45230911 -796.44347064 869.67664361 -804.834198 937.12388611 C-805.69466394 943.9458473 -806.74179406 950.72130314 -807.8671875 957.50390625 C-810.08530962 971.13242606 -811.88220899 984.80389404 -813.625 998.5 C-813.92675353 1000.84379248 -814.22883615 1003.18754262 -814.53125 1005.53125 C-814.82581652 1007.82287868 -815.12009751 1010.11454408 -815.4140625 1012.40625 C-815.54430817 1013.42126587 -815.67455383 1014.43628174 -815.80874634 1015.48205566 C-816.93228835 1024.31546954 -817.95941831 1033.1550556 -819 1042 C-856.62 1042 -894.24 1042 -933 1042 C-931.87472605 1023.99561683 -931.87472605 1023.99561683 -931.1328125 1018.02734375 C-931.05364594 1017.38030991 -930.97447937 1016.73327606 -930.89291382 1016.06663513 C-930.64162092 1014.02297719 -930.38354417 1011.98025193 -930.125 1009.9375 C-929.94432604 1008.48197519 -929.76399292 1007.02640803 -929.58398438 1005.57080078 C-928.35644467 995.68123306 -927.08702213 985.79698562 -925.77734375 975.91796875 C-925.19091227 971.48503485 -924.62515321 967.04978883 -924.06640625 962.61328125 C-920.54221555 934.70967676 -916.09396922 906.97887672 -911.3828125 879.25445557 C-911.01189532 877.0700538 -910.64258051 874.88538577 -910.2734375 872.70068359 C-902.52091968 826.93505981 -892.60730372 781.61060626 -880.6875 736.75 C-880.43883179 735.81041443 -880.19016357 734.87082886 -879.93395996 733.902771 C-877.28247411 723.91823523 -874.48796386 714.04008008 -871.10131836 704.27807617 C-869.90890778 700.72886382 -868.88346834 697.16818723 -867.875 693.5625 C-848.01631982 624.76897895 -816.83710262 555.22094012 -767 503 C-766.16855469 502.12730469 -765.33710937 501.25460937 -764.48046875 500.35546875 C-718.69010579 453.41133287 -647.41934134 428.29905312 -584 418 C-582.15752686 417.69872192 -582.15752686 417.69872192 -580.27783203 417.39135742 C-560.34055338 414.31551194 -540.59137668 413.61745293 -520.4375 413.625 C-519.2695993 413.62327789 -518.10169861 413.62155579 -516.89840698 413.61978149 C-493.34614973 413.62371159 -470.09526872 415.18999363 -446.8125 418.75 C-445.94701538 418.87972198 -445.08153076 419.00944397 -444.18981934 419.14309692 C-419.18871437 422.89519924 -394.60484247 427.91699904 -370.06298828 434.00537109 C-365.51682313 435.12480542 -360.96014508 436.1986207 -356.40234375 437.26953125 C-355.57898026 437.46302658 -354.75561676 437.65652191 -353.90730286 437.85588074 C-352.23398699 438.2489411 -350.56065217 438.6419208 -348.88729858 439.03482056 C-327.46215685 444.06793179 -327.46215685 444.06793179 -318.125 446.625 C-296.43847787 452.51039004 -274.2559812 456.94786635 -252 460 C-250.76000244 460.1757959 -249.52000488 460.3515918 -248.24243164 460.53271484 C-243.82310327 461.07724628 -239.44510706 461.17908783 -234.99609375 461.203125 C-234.15514664 461.20882507 -233.31419952 461.21452515 -232.44776917 461.22039795 C-230.67539708 461.22979137 -228.90300798 461.23635923 -227.13061523 461.24023438 C-224.46891371 461.24988609 -221.8080036 461.28094146 -219.14648438 461.3125 C-185.90298739 461.52098392 -158.99348425 447.62490967 -135.57324219 424.59619141 C-84.97940907 373.26433527 -59.35669214 297.20973114 -41 229 C-40.61362667 227.58584308 -40.22695653 226.17176718 -39.83984375 224.7578125 C-38.8721848 221.17708263 -37.93536828 217.58929018 -37 214 C-36.54756413 212.31361705 -36.09437669 210.62743563 -35.640625 208.94140625 C-25.68690258 171.73150322 -18.9129437 133.86074011 -12.92712402 95.83953857 C-12.31274461 91.94201848 -11.67474248 88.04966992 -11.01171875 84.16015625 C-9.72776692 76.50000211 -8.61347635 68.81514388 -7.50537109 61.12792969 C-7.25795531 59.41856927 -7.00808676 57.70956147 -6.75537109 56.00097656 C-4.0013192 37.37556073 -2.08169307 18.73523766 0 0 Z " fill="#444444" transform="translate(969,20)"/>
<path d="M0 0 C0.05774548 17.62480887 -0.04982019 35.23801397 -0.37231445 52.86010742 C-0.43692674 56.40603966 -0.49707043 59.95202673 -0.55664062 63.49804688 C-0.733686 73.6499551 -0.92066506 83.79947319 -1.24454212 93.94785213 C-2.0108974 118.11134619 -2.15095683 142.25667823 -2.14538372 166.43100965 C-2.14517576 172.08640423 -2.15073456 177.74179405 -2.15544128 183.39718628 C-2.16365825 194.41386852 -2.16649181 205.43054541 -2.16705366 216.44723047 C-2.16753215 225.40076404 -2.16960326 234.35429588 -2.17275429 243.3078289 C-2.18010775 264.63939581 -2.18628203 285.97096112 -2.18575573 307.30252934 C-2.18574015 307.98071415 -2.18572457 308.65889896 -2.18570852 309.35763483 C-2.18562544 312.79359409 -2.1855264 316.22955336 -2.18542381 319.66551263 C-2.18540387 320.34770863 -2.18538392 321.02990463 -2.18536337 321.73277324 C-2.18532294 323.11231899 -2.18528114 324.49186474 -2.18523798 325.87141049 C-2.18462338 347.4002016 -2.19217576 368.92897704 -2.20581055 390.45776367 C-2.22117731 414.7303171 -2.22976415 439.00285703 -2.22884732 463.27541631 C-2.22851575 476.09896811 -2.23124698 488.92250216 -2.24202538 501.74604988 C-2.25112519 512.64034938 -2.25330906 523.53462303 -2.24651595 534.42892469 C-2.24325111 539.98194226 -2.24319345 545.5349102 -2.2518692 551.08792305 C-2.25973396 556.17391762 -2.25830309 561.25982319 -2.24958507 566.34581559 C-2.24805032 568.18138516 -2.24986531 570.01696137 -2.25544515 571.8525231 C-2.29658334 586.34928995 -1.82017814 599.92661476 5.625 612.8125 C17.96616493 624.17936244 36.42109255 623.15712328 52.0625 623.0625 C53.51497241 623.05747414 54.96744651 623.05291316 56.41992188 623.04882812 C59.94669117 623.03876889 63.47322191 623.01917885 67 623 C67 628.28 67 633.56 67 639 C58.7304722 642.15797335 50.4627224 645.23211418 42.0625 648.0234375 C41.27372467 648.28593796 40.48494934 648.54843842 39.67227173 648.81889343 C38.85568085 649.09062881 38.03908997 649.3623642 37.19775391 649.64233398 C11.71593983 658.1231763 -13.39628724 667.52386233 -38.50982666 677.02514648 C-48.90320592 680.95708582 -59.29734355 684.886536 -69.7265625 688.72265625 C-71.08652847 689.22846474 -71.08652847 689.22846474 -72.47396851 689.74449158 C-73.29805206 690.04545242 -74.12213562 690.34641327 -74.97119141 690.65649414 C-75.6822403 690.91805801 -76.39328918 691.17962189 -77.12588501 691.44911194 C-79 692 -79 692 -82 692 C-84.28165474 688.57751788 -84.26729869 687.27281938 -84.31884766 683.2434082 C-84.34865219 681.47191154 -84.34865219 681.47191154 -84.37905884 679.66462708 C-84.39638565 677.75202339 -84.39638565 677.75202339 -84.4140625 675.80078125 C-84.44311172 673.84279854 -84.44311172 673.84279854 -84.4727478 671.84526062 C-84.52407634 668.37819478 -84.56369793 664.91109011 -84.60089111 661.44384766 C-84.64092641 657.90452464 -84.69202087 654.36536323 -84.7421875 650.82617188 C-84.83895513 643.88423267 -84.92335716 636.94218975 -85 630 C-85.66942627 630.6798999 -86.33885254 631.3597998 -87.02856445 632.06030273 C-89.56354873 634.63206125 -92.10561847 637.19672317 -94.6496582 639.75952148 C-95.74040691 640.86019919 -96.8293399 641.96267983 -97.91625977 643.06713867 C-104.9417654 650.20297558 -112.06866758 656.86110491 -120 663 C-120.60030029 663.4647876 -121.20060059 663.9295752 -121.8190918 664.40844727 C-135.18987232 674.48593209 -150.10051143 681.02599657 -166 686 C-166.97839844 686.30679688 -167.95679687 686.61359375 -168.96484375 686.9296875 C-212.55923494 699.06356396 -260.8896589 692.71533132 -300.3125 671.1875 C-313.0192762 663.59056619 -324.36315445 654.2529594 -335 644 C-336.05380859 643.02353516 -336.05380859 643.02353516 -337.12890625 642.02734375 C-343.49286148 635.97194392 -348.7368524 629.00170905 -354 622 C-354.47985352 621.36980957 -354.95970703 620.73961914 -355.45410156 620.09033203 C-369.77334383 601.15924017 -380.10682413 580.3248824 -388 558 C-388.28955566 557.20883789 -388.57911133 556.41767578 -388.87744141 555.60253906 C-396.0958585 535.74445695 -400.08899283 513.76613819 -400.203125 492.62109375 C-400.21013931 491.74379105 -400.21715363 490.86648834 -400.22438049 489.96260071 C-400.24187133 487.12084803 -400.24824005 484.27930466 -400.25 481.4375 C-400.25067474 480.46180054 -400.25134949 479.48610107 -400.25204468 478.48083496 C-400.21712829 446.55486026 -397.00332529 415.46938784 -387 385 C-386.77731445 384.31421875 -386.55462891 383.6284375 -386.32519531 382.921875 C-376.69205386 353.57408158 -362.02166666 326.31526592 -343 302 C-342.03513672 300.74509766 -342.03513672 300.74509766 -341.05078125 299.46484375 C-335.7231275 292.64587921 -329.9554613 286.26849982 -324 280 C-323.49307617 279.46439453 -322.98615234 278.92878906 -322.46386719 278.37695312 C-314.56751001 270.09144297 -306.26035346 262.729038 -297 256 C-296.13882568 255.37230713 -296.13882568 255.37230713 -295.26025391 254.73193359 C-274.19758727 239.5892647 -250.49792226 228.84393246 -225 224 C-224.24654297 223.85046875 -223.49308594 223.7009375 -222.71679688 223.546875 C-182.39878766 215.79726594 -141.00339864 221.58252535 -106.79394531 244.74023438 C-100.59081689 249.09626903 -94.98484704 254.12145262 -89.32983398 259.14990234 C-88.5190892 259.87076019 -87.70834442 260.59161804 -86.87303162 261.33432007 C-86.25493118 261.88399445 -85.63683075 262.43366882 -85 263 C-84.92970649 241.2587625 -84.87691262 219.51754391 -84.84456348 197.77621555 C-84.82913943 187.67979175 -84.80813593 177.58343883 -84.77368164 167.48706055 C-84.74364193 158.68006445 -84.72439263 149.87311974 -84.71773452 141.06607383 C-84.71384678 136.40915843 -84.70480474 131.75238993 -84.68280983 127.09552193 C-84.66221358 122.69851893 -84.65621212 118.30172119 -84.66067696 113.90467453 C-84.65986197 112.30408418 -84.65403571 110.70348584 -84.64238358 109.1029377 C-84.5405909 94.37915151 -84.46949579 75.75499116 -95.375 64.5625 C-104.48192101 59.14171368 -113.14530167 58.83047715 -123.4375 58.875 C-124.32759766 58.87113281 -125.21769531 58.86726563 -126.13476562 58.86328125 C-131.16623911 58.87063183 -136.05437683 59.15766908 -141.04663086 59.77734375 C-144.70414982 60.1942488 -148.32462683 60.05833926 -152 60 C-152 54.39 -152 48.78 -152 43 C-149.21175781 42.31164062 -149.21175781 42.31164062 -146.3671875 41.609375 C-141.26804836 40.34570978 -136.17001275 39.07786063 -131.07421875 37.80078125 C-129.30824341 37.35859253 -129.30824341 37.35859253 -127.5065918 36.9074707 C-122.84738772 35.70171553 -118.22473485 34.39203772 -113.609375 33.02734375 C-108.57520809 31.59445858 -103.50605548 30.30510369 -98.4375 29 C-91.28751883 27.15277352 -84.19171635 25.23072649 -77.15234375 22.9921875 C-72.71765722 21.59638777 -68.25384792 20.30417521 -63.78759766 19.01342773 C-51.15793594 15.33383343 -38.66182936 11.2768797 -26.23095703 6.97802734 C-24.07812287 6.23379462 -21.92391372 5.49364369 -19.76953125 4.75390625 C-5.66461635 -0.1049003 -5.66461635 -0.1049003 0 0 Z " fill="#444444" transform="translate(4612,358)"/>
<path d="M0 0 C1.66165207 1.66165207 1.11959725 3.6651603 1.12442017 5.88401794 C1.12082489 6.58172806 1.11722961 7.27943817 1.11352539 7.99829102 C1.11367142 8.72995483 1.11381744 9.46161865 1.1139679 10.2154541 C1.11326867 12.64496784 1.10547585 15.07440583 1.09765625 17.50390625 C1.0957921 19.18399514 1.09436819 20.86408457 1.09336853 22.54417419 C1.08954307 26.97473643 1.07971256 31.4052661 1.06866455 35.83581543 C1.05845103 40.35342976 1.05387104 44.87104934 1.04882812 49.38867188 C1.03809031 58.25912893 1.02101356 67.12956176 1 76 C1.66 76 2.32 76 3 76 C3 75.34 3 74.68 3 74 C4.29296875 72.66015625 4.29296875 72.66015625 6.1875 71.0625 C6.92226562 70.43859375 7.65703125 69.8146875 8.4140625 69.171875 C9.26742187 68.45515625 10.12078125 67.7384375 11 67 C11.95648437 66.18015625 12.91296875 65.3603125 13.8984375 64.515625 C17.24377555 61.65075125 20.61554183 58.81851401 24 56 C24.57105469 55.52401367 25.14210938 55.04802734 25.73046875 54.55761719 C67.45041053 19.98631712 114.53671452 -4.47555365 170 -1 C196.45460069 1.56278944 221.28917549 13.88908164 238.75 34.09375 C249.96718905 48.58261919 257.05571846 65.18179067 264 82 C264.53367187 81.46109131 265.06734375 80.92218262 265.6171875 80.36694336 C268.07539426 77.88773764 270.53766366 75.41260401 273 72.9375 C273.83917969 72.08994141 274.67835938 71.24238281 275.54296875 70.36914062 C280.53034354 65.36243492 285.62384363 60.58449155 291 56 C292.09499004 55.03917177 293.18879329 54.07698888 294.28125 53.11328125 C323.10872041 27.9225481 355.31604781 9.0171573 393 1 C394.71316406 0.62875 394.71316406 0.62875 396.4609375 0.25 C427.52141984 -5.27186353 463.96317057 -0.36649664 490.625 17.0625 C502.86488067 26.02221414 512.65289246 36.74108559 520 50 C520.63550781 51.14339844 521.27101563 52.28679688 521.92578125 53.46484375 C544.9079266 97.21458082 541.29429691 151.33036698 541.30592227 199.15393901 C541.30998661 205.23703108 541.32494737 211.32008441 541.34045542 217.40315635 C541.37105994 229.44250858 541.39533958 241.48186267 541.41333008 253.52124023 C541.41440276 254.23685958 541.41547544 254.95247892 541.41658062 255.6897837 C541.4284256 263.69079078 541.43863559 271.69179861 541.44702148 279.69281006 C541.45009688 282.60664878 541.45318543 285.52048749 541.45629883 288.43432617 C541.45706417 289.15359246 541.45782951 289.87285874 541.45861804 290.61392098 C541.47172923 302.63601004 541.496393 314.65804493 541.53004223 326.68009382 C541.5519983 334.71383555 541.55988596 342.74740812 541.55764949 350.78118503 C541.55932194 355.77824612 541.57340284 360.7752169 541.59086227 365.77224541 C541.59643553 368.07717733 541.5969714 370.38212817 541.59192467 372.68706131 C541.55656094 390.73678517 541.63564897 411.32306884 554.9921875 425.2578125 C564.46723436 433.47935121 576.30809919 437.16366255 588.375 439.625 C589.37926025 439.83664795 590.38352051 440.0482959 591.41821289 440.26635742 C598.25605826 441.69083934 605.09260624 442.95915984 612 444 C612 448.29 612 452.58 612 457 C539.07 457 466.14 457 391 457 C391 452.05 391 447.1 391 442 C394.650625 441.62875 394.650625 441.62875 398.375 441.25 C415.31541979 439.33299682 437.00404974 436.69689285 448.67578125 423.0390625 C457.24303683 411.26174342 459.32003867 396.21395359 459.25396729 382.00364685 C459.25864726 380.42826435 459.25864726 380.42826435 459.26342177 378.82105595 C459.27134453 375.33173591 459.26510038 371.84259256 459.25878906 368.35327148 C459.26150158 365.83901366 459.26506397 363.32475663 459.26940918 360.8105011 C459.27756405 354.70652667 459.27639479 348.60261672 459.2705839 342.49864148 C459.26605194 337.53051888 459.26546113 332.56241004 459.26763153 327.59428596 C459.267938 326.88493017 459.26824446 326.17557437 459.26856022 325.44472294 C459.26919973 324.00321697 459.26984816 322.56171101 459.2705054 321.12020505 C459.27620013 307.62162089 459.26966578 294.12306395 459.25890467 280.62448425 C459.24998349 269.0773606 459.25151102 257.53027721 459.26074219 245.9831543 C459.27148344 232.54100335 459.27563669 219.09887629 459.26951766 205.65672165 C459.26888064 204.21862257 459.2682519 202.78052348 459.26763153 201.34242439 C459.26732298 200.63506163 459.26701443 199.92769886 459.26669653 199.19890086 C459.26498009 194.24841842 459.2678621 189.2979513 459.27259064 184.34747124 C459.27883799 177.66037862 459.27428946 170.97337279 459.26280212 164.28628349 C459.26017756 161.84436162 459.26088248 159.40243331 459.26532745 156.96051407 C459.30675704 131.93522981 459.30675704 131.93522981 454.875 107.375 C454.66399658 106.59777588 454.45299316 105.82055176 454.2355957 105.01977539 C449.05550461 87.08026358 439.12997231 71.50942276 422.66015625 62.08984375 C400.38472575 50.51425614 374.26100175 50.07651776 350.47265625 57.03125 C327.32921449 64.73705288 308.81855976 78.67075269 291 95 C289.96115699 95.94555371 288.92208458 96.89085542 287.8828125 97.8359375 C284.91052873 100.54539077 281.94001115 103.25543513 279 106 C278.13099595 106.65649284 277.2619919 107.31298569 276.3666544 107.98937225 C272.87821651 112.42702395 273.30836029 116.25021314 273.37181091 121.74816895 C273.36471653 122.84426688 273.35762214 123.94036481 273.35031277 125.06967783 C273.33268124 128.75058236 273.35086604 132.43043813 273.36889648 136.11132812 C273.36375916 138.74793943 273.35666793 141.38447981 273.34721375 144.02107239 C273.32882149 150.4478054 273.33736411 156.87423457 273.35530197 163.30095816 C273.36933944 168.53332759 273.37321828 173.76561464 273.3698597 178.9980011 C273.36938225 179.74338336 273.36890481 180.48876563 273.3684129 181.25673524 C273.3673865 182.77127423 273.36633114 184.2858132 273.36524714 185.80035216 C273.3566744 199.20273672 273.37336294 212.60497523 273.40307617 226.00732422 C273.43182241 238.97385827 273.43904189 251.94018116 273.42358398 264.90673828 C273.40675288 279.04437888 273.40286476 293.18191911 273.42029434 307.31956244 C273.42213852 308.83335716 273.42397325 310.3471519 273.42579842 311.86094666 C273.42671051 312.60559064 273.4276226 313.35023463 273.42856232 314.11744359 C273.43413213 319.32644646 273.43089315 324.53539988 273.42425346 329.74440002 C273.41645136 336.11836603 273.42351336 342.49212557 273.4484285 348.86605048 C273.46077751 352.10923283 273.46504563 355.35203732 273.45588684 358.59523964 C273.36627982 392.43335888 273.36627982 392.43335888 287.72265625 422.31640625 C290 425 290 425 290 427 C290.7734375 427.3403125 290.7734375 427.3403125 291.5625 427.6875 C294 429 294 429 296.9375 431.3125 C307.59933777 439.07909734 321.20015475 441.14779029 334 442.125 C335.59134766 442.25455078 335.59134766 442.25455078 337.21484375 442.38671875 C339.80942074 442.59708986 342.40465138 442.79937272 345 443 C345 447.62 345 452.24 345 457 C270.75 457 196.5 457 120 457 C120 444 120 444 121 443 C122.94056925 442.70325729 124.88223304 442.41250363 126.82788086 442.15112305 C142.99762241 439.94738604 166.03595644 436.36242809 177 423 C177.680625 422.278125 178.36125 421.55625 179.0625 420.8125 C186.75620456 409.64421919 188.86996197 394.46591108 190.10101318 381.21444702 C190.18583191 380.30457767 190.27065063 379.39470832 190.35803962 378.45726717 C191.19795693 368.76186866 191.28192895 359.10659222 191.25878906 349.38134766 C191.26150928 347.41872021 191.26507591 345.45609379 191.26940918 343.49346924 C191.2784191 338.22831034 191.27503507 332.96323105 191.26865101 327.698071 C191.26352402 322.1339477 191.26830146 316.56983041 191.27142334 311.00570679 C191.27504675 301.6572754 191.27030999 292.30887576 191.26074219 282.96044922 C191.24989278 272.23776297 191.25336424 261.51515302 191.264395 250.79246867 C191.27355295 241.51010232 191.27471118 232.22775857 191.26951766 222.94538915 C191.26644005 217.43548996 191.26586909 211.92562626 191.27259064 206.41572952 C194.26292092 134.11012058 194.26292092 134.11012058 165.12890625 70.9609375 C149.5230356 56.58635573 128.72548857 52.10364707 108.01708984 52.89501953 C73.70142219 54.68099594 41.40269386 74.25532271 17.75775528 98.31881905 C16 100 16 100 13.53957748 101.78687859 C8.49825845 106.05881085 5.88337488 109.70021598 5.08443451 116.37909317 C4.6181033 123.38512397 4.7392829 130.39026371 4.83300781 137.40673828 C4.83255405 140.10991258 4.82814331 142.81281441 4.81884766 145.51594543 C4.80525472 152.08131606 4.84441733 158.64535033 4.90117422 165.21044774 C4.96511185 172.87158777 4.97368839 180.53249801 4.97955808 188.19386624 C4.99167324 201.87725682 5.0498184 215.56005368 5.13574219 229.24316406 C5.21883422 242.48699097 5.27558424 255.73054006 5.29980469 268.97460938 C5.30130112 269.78950534 5.30279754 270.6044013 5.30433932 271.44399108 C5.31028958 274.72067182 5.31616413 277.99735269 5.32191189 281.27403379 C5.3474744 295.46534024 5.39485369 309.65658625 5.4451884 323.84782332 C5.45312662 326.13327838 5.46057026 328.41873459 5.46789646 330.70419168 C5.49408025 338.72091986 5.52707306 346.73754004 5.57786527 354.75415392 C5.59883094 358.06563978 5.61610219 361.37701561 5.62700653 364.68855858 C4.93670277 399.29836287 4.93670277 399.29836287 19.44921875 429.6328125 C33.33077822 443.01019911 56.99261063 442.41521356 75 443 C75 447.62 75 452.24 75 457 C1.41 457 -72.18 457 -148 457 C-148 452.38 -148 447.76 -148 443 C-145.87884766 442.72736328 -145.87884766 442.72736328 -143.71484375 442.44921875 C-137.80335514 441.67752196 -131.90033092 440.85257781 -126 440 C-125.24477051 439.89316895 -124.48954102 439.78633789 -123.71142578 439.67626953 C-110.02272627 437.66118179 -99.10195665 433.07040529 -89.8515625 422.55859375 C-87.86367759 419.81162199 -86.62998264 417.20805327 -85.375 414.0625 C-84.97023438 413.06347656 -84.56546875 412.06445312 -84.1484375 411.03515625 C-79.87340343 399.73685193 -78.69677951 388.66567729 -78.73930359 376.64199829 C-78.73547804 375.46949473 -78.73165249 374.29699116 -78.72771102 373.08895719 C-78.71925343 369.87498795 -78.71958546 366.66116731 -78.72389162 363.44719458 C-78.72637825 359.96515582 -78.71732089 356.48314291 -78.70985413 353.00111389 C-78.6971588 346.19524364 -78.69530692 339.38941293 -78.69765439 332.58353283 C-78.6994434 327.04716334 -78.69767546 321.51080578 -78.69342995 315.97443771 C-78.69283476 315.18400125 -78.69223957 314.39356479 -78.69162634 313.5791757 C-78.69041449 311.97298261 -78.68920036 310.36678953 -78.68798397 308.76059644 C-78.67712848 293.72602547 -78.67926156 278.69147697 -78.68536881 263.65690474 C-78.69053702 249.9297009 -78.67928151 236.20256804 -78.66027059 222.47537823 C-78.64085765 208.34860252 -78.63264219 194.22186033 -78.63639385 180.0950712 C-78.63830055 172.17663445 -78.63587029 164.25825811 -78.62167931 156.33983231 C-78.60972041 149.59922916 -78.6084109 142.85872362 -78.62046947 136.11811902 C-78.62632652 132.68530525 -78.62754662 129.25266961 -78.61546707 125.81986809 C-77.87397125 97.30935873 -77.87397125 97.30935873 -90.234375 72.5 C-93.42998465 69.78514578 -97.05936755 68.33035752 -101 67 C-102.03382813 66.64164063 -103.06765625 66.28328125 -104.1328125 65.9140625 C-108.97126596 64.77042805 -113.48331804 64.65994328 -118.4375 64.6875 C-119.87826904 64.68943359 -119.87826904 64.68943359 -121.34814453 64.69140625 C-129.89323836 64.80505671 -137.67319268 66.11468513 -146 68 C-146 62.06 -146 56.12 -146 50 C-143.45796875 49.14019531 -140.9159375 48.28039062 -138.296875 47.39453125 C-102.93970343 35.41217002 -67.9349974 22.68634034 -33.06782532 9.34431458 C-29.22612218 7.87700318 -25.38098993 6.41885708 -21.53479004 4.96337891 C-19.21708032 4.08250411 -16.90472387 3.18881444 -14.59277344 2.29296875 C-13.34081516 1.81946458 -12.08856481 1.34673145 -10.8359375 0.875 C-9.80774902 0.48054687 -8.77956055 0.08609375 -7.72021484 -0.3203125 C-4.71699081 -1.0707142 -2.93646086 -0.90814342 0 0 Z " fill="#444444" transform="translate(3073,584)"/>
<path d="M0 0 C3.3783379 0.00316666 6.75580218 -0.02042717 10.1340332 -0.0456543 C27.19887757 -0.09635051 43.861806 1.09393553 60.26098633 6.12817383 C61.56350342 6.51718872 61.56350342 6.51718872 62.89233398 6.9140625 C93.46633479 16.24875236 117.83673911 33.76198013 133.43725586 62.11254883 C138.37079144 71.41824382 141.40030527 81.05335759 143.93359375 91.24975586 C144.26819834 92.59229928 144.61411312 93.93209219 144.97314453 95.26831055 C146.3988124 100.65025751 147.24844086 106.05436636 148.01098633 111.56567383 C148.13666992 112.43063477 148.26235352 113.2955957 148.3918457 114.18676758 C150.43771988 128.68998032 150.5996815 143.01867729 150.60620117 157.63891602 C150.61087599 159.99893283 150.61602065 162.35894876 150.62159729 164.71896362 C150.63283196 169.78357609 150.64128828 174.84818284 150.64771652 179.91280365 C150.65844806 187.93296 150.67868777 195.95307515 150.70083618 203.97320557 C150.70831382 206.72533785 150.71572785 209.47747031 150.72312355 212.22960281 C150.72497412 212.91719846 150.72682468 213.6047941 150.72873133 214.31322597 C150.74961128 222.12067863 150.7684622 229.92813571 150.78637695 237.7355957 C150.78801514 238.44834149 150.78965332 239.16108728 150.79134114 239.89543143 C150.81761363 251.43953547 150.83626863 262.98364267 150.85296886 274.52776393 C150.87044295 286.41598874 150.89934091 298.30415157 150.93785822 310.19232678 C150.95905661 316.85268007 150.97437577 323.51296821 150.9766655 330.17336273 C150.97882305 336.44109578 150.99480499 342.70864517 151.02105522 348.97632217 C151.02820636 351.26588298 151.03036971 353.55546613 151.02695274 355.84503555 C150.60185325 383.18080497 150.60185325 383.18080497 162.70629883 406.80786133 C168.7696995 412.05555787 175.23487538 412.93420092 183.06958008 412.61645508 C196.12705415 411.45411346 204.85474623 406.52827065 215.44848633 399.31567383 C217.10888979 398.20602085 218.77035323 397.09795235 220.43286133 395.99145508 C221.58093262 395.2263562 221.58093262 395.2263562 222.75219727 394.44580078 C223.31197266 394.07285889 223.87174805 393.69991699 224.44848633 393.31567383 C226.52865771 418.13638542 226.52865771 418.13638542 222.02270508 424.75708008 C219.17979049 428.05443826 215.89291486 430.6691319 212.44848633 433.31567383 C211.28085264 434.52415067 210.13056249 435.75004417 209.01098633 437.00317383 C188.41325613 457.10457318 161.09147028 470.08413028 132.14794922 469.78833008 C117.46801225 469.28817113 103.09804937 465.22493716 92.06176758 455.05786133 C77.6051544 439.44611926 72.3311272 418.77539322 69.44848633 398.31567383 C68.17618164 399.42362305 68.17618164 399.42362305 66.87817383 400.55395508 C58.59318119 407.73452082 50.16800422 414.66955481 41.44848633 421.31567383 C40.73031738 421.86513672 40.01214844 422.41459961 39.2722168 422.98071289 C28.08150221 431.50402559 16.67377207 439.34897171 4.44848633 446.31567383 C3.69100098 446.7486377 2.93351562 447.18160156 2.15307617 447.62768555 C-22.27979659 461.42682856 -48.65442104 470.70288866 -76.92651367 470.62817383 C-78.7440918 470.65234375 -78.7440918 470.65234375 -80.59838867 470.67700195 C-89.26210802 470.68162014 -97.17012926 469.47463638 -105.55151367 467.31567383 C-106.30352051 467.12223389 -107.05552734 466.92879395 -107.83032227 466.72949219 C-133.09903385 459.740344 -155.00031275 441.48720664 -168.11401367 419.06567383 C-177.04298837 402.38646696 -180.73906187 386.99968189 -180.73681641 368.23657227 C-180.73898664 366.21584469 -180.75714884 364.19567914 -180.77612305 362.17504883 C-180.80381134 343.31009247 -177.10448272 326.16629941 -168.55151367 309.31567383 C-167.85735352 307.94668945 -167.85735352 307.94668945 -167.14916992 306.55004883 C-140.26423867 255.49007329 -85.17003224 229.97667993 -34.55151367 208.31567383 C-33.78856995 207.98823181 -33.02562622 207.66078979 -32.23956299 207.32342529 C-5.73822672 195.95524014 20.9992968 185.27268355 47.95532227 175.03198242 C50.80426671 173.94814979 53.64607791 172.84898431 56.48071289 171.72827148 C58.23206543 171.03870361 58.23206543 171.03870361 60.01879883 170.33520508 C61.00895996 169.94051025 61.99912109 169.54581543 63.01928711 169.13916016 C65.44848633 168.31567383 65.44848633 168.31567383 68.44848633 168.31567383 C68.36336578 159.48227013 68.26822016 150.64904351 68.16095924 141.81588078 C68.11143131 137.71241055 68.06510538 133.60896083 68.02661133 129.50537109 C67.98919897 125.53056939 67.94270491 121.55596034 67.89042282 117.58132744 C67.87217069 116.07985316 67.85696064 114.57833809 67.84514236 113.07679939 C67.6567544 89.92625404 66.39644443 61.71258721 49.37036133 44.04614258 C29.44499855 26.10521633 4.2454602 25.20011429 -21.12524414 26.09985352 C-27.65486309 26.51115344 -33.45832531 27.88631172 -39.55151367 30.31567383 C-40.6059668 30.70110352 -41.66041992 31.0865332 -42.74682617 31.48364258 C-56.62294369 36.85672568 -68.45252593 44.25622791 -75.45776367 57.70239258 C-79.76710776 67.99864685 -77.99020765 80.86649942 -76.05151367 91.56567383 C-73.24902419 107.45901969 -71.66129133 125.86241316 -81.36401367 139.75317383 C-82.39362975 140.96929604 -83.45570496 142.15883945 -84.55151367 143.31567383 C-85.30368164 144.1277832 -85.30368164 144.1277832 -86.07104492 144.95629883 C-95.41275826 153.95707372 -107.72431034 155.72268851 -120.08276367 155.52270508 C-132.54008052 155.09030673 -142.05124824 151.28387736 -150.73901367 142.25317383 C-160.97820163 129.41772453 -163.78169229 115.23214032 -162.55151367 99.31567383 C-158.35444642 72.21783024 -135.67472208 47.58770357 -114.59814453 31.59521484 C-111.63139962 29.42678854 -108.61164267 27.349602 -105.55151367 25.31567383 C-104.26567383 24.44555664 -104.26567383 24.44555664 -102.95385742 23.55786133 C-87.99206454 14.0162839 -70.47680579 8.49829961 -53.30151367 4.62817383 C-52.42229248 4.42562988 -51.54307129 4.22308594 -50.63720703 4.0144043 C-33.91323384 0.42310066 -17.04606781 -0.03330515 0 0 Z " fill="#444444" transform="translate(2015.551513671875,577.684326171875)"/>
<path d="M0 0 C18.75440053 16.77687049 32.38998245 37.52471389 41.42651367 60.97729492 C41.85577148 62.08717773 42.2850293 63.19706055 42.72729492 64.34057617 C51.18598845 87.88350336 53.42651367 112.11049688 53.42651367 136.97729492 C-48.87348633 136.97729492 -151.17348633 136.97729492 -256.57348633 136.97729492 C-252.9337996 184.29322237 -247.54326939 231.58496112 -224.57348633 273.97729492 C-223.99727539 275.04592773 -223.42106445 276.11456055 -222.82739258 277.21557617 C-203.99982265 310.73995589 -171.22759529 337.15801208 -134.40161133 348.29760742 C-97.04739181 358.70584715 -55.58388837 353.55114763 -21.88989258 334.58666992 C-9.79584051 327.46281271 0.55701933 317.87678773 10.42651367 307.97729492 C11.3262793 307.11233398 12.22604492 306.24737305 13.15307617 305.35620117 C20.6762987 298.08784964 27.19650153 290.3703905 33.42651367 281.97729492 C34.22605469 280.90439209 34.22605469 280.90439209 35.04174805 279.80981445 C41.97576594 270.46580254 48.55017911 261.02564948 54.42651367 250.97729492 C60.60166785 252.21816515 66.48486393 253.89523983 72.42651367 255.97729492 C71.05998797 263.14970818 68.8211533 269.56933403 65.98901367 276.28979492 C65.54799316 277.33796387 65.10697266 278.38613281 64.65258789 279.46606445 C47.50212744 319.37909447 17.81564621 358.26989069 -16.57348633 384.97729492 C-17.09974609 385.39591797 -17.62600586 385.81454102 -18.16821289 386.24584961 C-34.16263373 398.9155347 -52.2549608 408.46943907 -71.57348633 414.97729492 C-72.25121094 415.2099707 -72.92893555 415.44264648 -73.62719727 415.68237305 C-107.9104866 427.24742308 -148.53783285 429.22705649 -183.57348633 419.97729492 C-184.76329102 419.72463867 -185.9530957 419.47198242 -187.17895508 419.21166992 C-230.42751851 409.66835602 -263.56405743 379.88333694 -287.56176758 344.00463867 C-298.18563615 327.30998806 -306.70896521 309.508609 -313.57348633 290.97729492 C-314.05882205 289.70112338 -314.54447546 288.42507259 -315.03051758 287.14916992 C-330.1453903 246.41664284 -332.91121684 199.87400855 -327.57348633 156.97729492 C-327.48228516 156.17565918 -327.39108398 155.37402344 -327.29711914 154.5480957 C-320.95412254 99.60884266 -295.19971981 49.85467058 -257.57348633 9.97729492 C-256.77168945 9.12135742 -255.96989258 8.26541992 -255.14379883 7.38354492 C-194.72600821 -55.21324798 -87.2071682 -64.9218672 0 0 Z " fill="#444444" transform="translate(5036.573486328125,628.022705078125)"/>
<path d="M0 0 C16.67511213 14.01595803 28.82975874 30.12540755 38.9375 49.3125 C39.26282715 49.91545898 39.5881543 50.51841797 39.92333984 51.13964844 C53.74643559 76.82412335 63.0878122 104.67475919 69.42626953 133.06494141 C69.87143482 135.02205299 70.35255371 136.97091808 70.83984375 138.91796875 C72.55856017 145.80138526 73.5671423 152.62002771 74.29174805 159.66699219 C74.60618051 162.70970358 74.9662327 165.39869809 75.9375 168.3125 C77.10416099 176.58197357 77.08398698 184.9047736 77.0703125 193.23828125 C77.07174759 195.19606758 77.07174759 195.19606758 77.07321167 197.19340515 C77.074675 199.94071656 77.07257951 202.68799518 77.06787109 205.43530273 C77.06219168 208.91434773 77.06545025 212.39331524 77.07144356 215.87235737 C77.0759792 219.24433777 77.07277879 222.61629867 77.0703125 225.98828125 C77.07233673 227.21581619 77.07436096 228.44335114 77.07644653 229.70808411 C77.04101148 243.02594695 75.91242081 255.94677462 73.6875 269.0625 C73.57767792 269.71447357 73.46785583 270.36644714 73.35470581 271.03817749 C71.54652714 281.69389362 69.27884903 292.03336883 65.9375 302.3125 C65.6273999 303.31168457 65.6273999 303.31168457 65.31103516 304.33105469 C59.8653472 321.78571938 52.17118512 339.79090704 40.9375 354.3125 C40.53063965 354.8398877 40.1237793 355.36727539 39.70458984 355.91064453 C24.24736335 375.697498 3.1389989 389.17855814 -22.0625 392.3125 C-39.37427069 393.28576351 -56.67287542 393.59252729 -73.0625 387.3125 C-73.76745605 387.05017578 -74.47241211 386.78785156 -75.19873047 386.51757812 C-113.80932455 371.83058361 -137.13177799 336.91778716 -153.44262695 300.71411133 C-157.37611781 291.79503177 -160.88392344 282.73094134 -164.22802734 273.57666016 C-164.94925468 271.61976657 -165.70040839 269.67395099 -166.45703125 267.73046875 C-173.07895274 250.34529708 -176.6122282 231.85472381 -179.68066406 213.56103516 C-179.99532875 211.70805451 -180.33423978 209.85920814 -180.6796875 208.01171875 C-183.84086859 190.81975699 -184.44190981 173.37346276 -184.375 155.9375 C-184.37317719 154.94247467 -184.37135437 153.94744934 -184.36947632 152.92227173 C-184.23105989 107.74666493 -179.06900612 57.59758436 -151.0625 20.3125 C-150.11117187 19.03052734 -150.11117187 19.03052734 -149.140625 17.72265625 C-132.54984434 -3.81217705 -110.53900167 -17.56736013 -83.74609375 -22.26953125 C-53.76135806 -25.67182894 -24.071406 -18.22883173 0 0 Z " fill="#FEFEFE" transform="translate(3989.0625,634.6875)"/>
<path d="M0 0 C3.0626252 2.76703671 6.05956758 5.58962676 9.0390625 8.4453125 C9.62445801 8.99815918 10.20985352 9.55100586 10.81298828 10.12060547 C52.93783044 50.04994388 74.4481288 107.04761204 76.09988403 164.56317139 C76.21580779 170.06543407 76.23390016 175.56699802 76.2265625 181.0703125 C76.22595825 181.91046906 76.225354 182.75062561 76.22473145 183.61624146 C76.20056439 196.0049528 75.89199717 208.1767172 74.0390625 220.4453125 C73.92079102 221.30415039 73.80251953 222.16298828 73.68066406 223.04785156 C68.57711243 259.60382569 55.04773165 297.53297763 33.0390625 327.4453125 C32.59062988 328.05922852 32.14219727 328.67314453 31.68017578 329.30566406 C22.4492727 341.91179679 12.89170696 353.97667937 1.7890625 365.0078125 C0.86448242 365.92675293 -0.06009766 366.84569336 -1.01269531 367.79248047 C-7.63809507 374.30085235 -14.26146043 380.21900079 -21.9609375 385.4453125 C-22.91830811 386.10466797 -22.91830811 386.10466797 -23.89501953 386.77734375 C-48.90428572 403.91037253 -76.43445742 414.96733662 -106.2734375 420.1953125 C-106.92924805 420.31116699 -107.58505859 420.42702148 -108.26074219 420.54638672 C-120.83418927 422.56218826 -133.6891264 422.68302232 -146.3984375 422.6953125 C-147.13295135 422.69631958 -147.86746521 422.69732666 -148.62423706 422.69836426 C-167.74073593 422.68079798 -186.54350194 420.74182992 -204.9609375 415.4453125 C-206.12810303 415.11370117 -206.12810303 415.11370117 -207.31884766 414.77539062 C-237.81131562 405.89303761 -265.3643165 390.00909057 -288.6875 368.53515625 C-290.80723962 366.58659835 -292.96577219 364.69773917 -295.1484375 362.8203125 C-301.64413628 357.13008037 -307.24162071 351.05275472 -312.6484375 344.3125 C-314.12292522 342.48433449 -315.62083485 340.67464667 -317.1484375 338.890625 C-323.92411244 330.92920695 -329.49952005 322.33505021 -334.9609375 313.4453125 C-335.35812988 312.8049707 -335.75532227 312.16462891 -336.16455078 311.50488281 C-365.87781701 263.08608194 -376.53172513 197.33559136 -366.9609375 141.4453125 C-366.83203125 140.67799805 -366.703125 139.91068359 -366.5703125 139.12011719 C-365.54147621 133.18763757 -364.3061907 127.31354843 -362.9609375 121.4453125 C-362.74953125 120.52169922 -362.538125 119.59808594 -362.3203125 118.64648438 C-357.67517822 98.78313399 -350.58931053 80.41195144 -340.9609375 62.4453125 C-340.64157227 61.84525391 -340.32220703 61.24519531 -339.99316406 60.62695312 C-332.7677444 47.17373519 -323.87559243 35.04191782 -313.9609375 23.4453125 C-313.3009375 22.67316406 -312.6409375 21.90101563 -311.9609375 21.10546875 C-285.89367026 -8.56579567 -254.02797199 -31.05210581 -215.9609375 -42.5546875 C-215.24276855 -42.77463379 -214.52459961 -42.99458008 -213.78466797 -43.22119141 C-141.85757844 -64.64996147 -57.06301982 -49.23379282 0 0 Z M-186.9609375 -18.5546875 C-188.55228516 -18.15443359 -188.55228516 -18.15443359 -190.17578125 -17.74609375 C-217.84342042 -10.20037398 -238.32601817 10.39628779 -252.40625 34.58203125 C-265.60825266 58.07309992 -271.41143514 83.9625308 -274.9609375 110.4453125 C-275.08098145 111.30882324 -275.20102539 112.17233398 -275.32470703 113.06201172 C-277.23718718 127.49824412 -277.16620436 142.03451249 -277.2109375 156.5703125 C-277.21629517 157.5423764 -277.22165283 158.51444031 -277.22717285 159.51596069 C-277.30210865 177.46667936 -276.09566358 195.16110069 -273.1484375 212.8828125 C-272.97884521 213.91720459 -272.80925293 214.95159668 -272.63452148 216.01733398 C-270.04550245 231.34456045 -266.6981153 246.49287396 -261.71044922 261.22802734 C-261.16884884 262.83024709 -260.6349834 264.43508858 -260.10595703 266.04150391 C-255.53141255 279.92012457 -250.28278355 293.27034921 -243.9609375 306.4453125 C-243.61530762 307.16831543 -243.26967773 307.89131836 -242.91357422 308.63623047 C-240.67758745 313.28284026 -238.35761868 317.8796288 -235.9609375 322.4453125 C-235.34863281 323.61320312 -234.73632812 324.78109375 -234.10546875 325.984375 C-218.44520281 354.59261341 -194.95652829 378.55210388 -163.73046875 389.375 C-162.48652344 389.72820312 -161.24257812 390.08140625 -159.9609375 390.4453125 C-159.05206787 390.70497803 -158.14319824 390.96464355 -157.20678711 391.23217773 C-149.09632442 393.3480865 -141.31119851 393.88325825 -132.9675293 393.78149414 C-130.89657742 393.75779121 -128.82691403 393.76097696 -126.75585938 393.76757812 C-115.76627247 393.74607672 -105.24582977 392.81013004 -94.9609375 388.7578125 C-93.95039307 388.36589722 -93.95039307 388.36589722 -92.91943359 387.96606445 C-83.0870699 384.02636054 -74.89544294 378.87530668 -67.21484375 371.55859375 C-64.9609375 369.4453125 -64.9609375 369.4453125 -62.50390625 367.56640625 C-52.48493743 359.20957051 -45.82540501 346.89175349 -39.9609375 335.4453125 C-39.61434082 334.77661133 -39.26774414 334.10791016 -38.91064453 333.41894531 C-28.75692369 313.60750503 -22.94416857 292.46470224 -19.3359375 270.5703125 C-19.01109375 268.68119141 -19.01109375 268.68119141 -18.6796875 266.75390625 C-18.47085938 265.49964844 -18.26203125 264.24539063 -18.046875 262.953125 C-17.8617334 261.84598145 -17.6765918 260.73883789 -17.48583984 259.59814453 C-15.97859872 248.83257449 -15.81023106 237.97234529 -15.828125 227.12109375 C-15.82716827 225.81303268 -15.82621155 224.50497162 -15.82522583 223.15727234 C-15.82376768 220.41530142 -15.82584285 217.67336351 -15.83056641 214.93139648 C-15.83627963 211.44877927 -15.83296255 207.96623891 -15.82699394 204.48362446 C-15.82247804 201.112775 -15.82565411 197.74194538 -15.828125 194.37109375 C-15.82508865 192.5206823 -15.82508865 192.5206823 -15.82199097 190.63288879 C-15.84792203 180.96478459 -16.39637498 171.66839107 -18.43359375 162.2109375 C-19.05211859 158.96711835 -19.44180799 155.72391196 -19.8359375 152.4453125 C-24.01133252 120.54019484 -35.22606131 89.39259527 -48.9609375 60.4453125 C-49.29593262 59.73149414 -49.63092773 59.01767578 -49.97607422 58.28222656 C-61.4503343 33.96296353 -77.6828201 9.86603303 -100.9609375 -4.5546875 C-101.80140625 -5.12445312 -102.641875 -5.69421875 -103.5078125 -6.28125 C-127.03217037 -21.36607835 -160.16591939 -26.14934908 -186.9609375 -18.5546875 Z " fill="#444444" transform="translate(4081.9609375,633.5546875)"/>
<path d="M0 0 C1.46354702 1.24389157 2.92251908 2.49320436 4.375 3.75 C4.98214844 4.2140625 5.58929688 4.678125 6.21484375 5.15625 C19.76096074 15.72283559 27.32816798 32.67715097 31.75 48.8125 C31.98871826 49.65401611 32.22743652 50.49553223 32.47338867 51.36254883 C36.95937998 69.12318061 36.67459032 88.16508035 36.6496582 106.3659668 C36.65402108 108.51735101 36.65920937 110.66873369 36.66514587 112.82011414 C36.67836579 118.58385481 36.67913473 124.34752927 36.67658257 130.11128211 C36.67550296 134.94527379 36.68042035 139.77925261 36.685188 144.61324149 C36.69622034 156.0155272 36.69675366 167.41777992 36.69067383 178.82006836 C36.68461448 190.55202902 36.69700907 202.28387035 36.7182439 214.01581067 C36.73587814 224.13358338 36.74185909 234.25131813 36.73860615 244.36910564 C36.73679893 250.39314939 36.73937507 256.41710762 36.75332069 262.44113731 C36.76592717 268.09586737 36.76392826 273.75041071 36.75090981 279.40513802 C36.74855211 281.47225382 36.75124959 283.53938291 36.75953293 285.60648346 C36.84870199 309.59659787 30.90233087 324.73096418 14.25 342.3125 C-4.35413352 360.45537401 -27.53423181 366.24799248 -52.97314453 366.10595703 C-62.14188233 365.92314273 -70.7166794 364.86010684 -79.625 362.75 C-81.45611328 362.36714844 -81.45611328 362.36714844 -83.32421875 361.9765625 C-99.68023157 358.18739056 -114.6574503 350.33298798 -127.625 339.75 C-128.14642578 339.32493164 -128.66785156 338.89986328 -129.20507812 338.46191406 C-141.46211392 328.26817153 -150.88303308 315.63432641 -158.625 301.75 C-159.07488281 300.94449707 -159.52476563 300.13899414 -159.98828125 299.30908203 C-167.76988731 285.22160325 -174.21578764 270.90338444 -179.625 255.75 C-179.88361816 255.03859863 -180.14223633 254.32719727 -180.40869141 253.59423828 C-184.92004895 241.01058331 -187.23996187 227.86876973 -189.625 214.75 C-189.80756348 213.77869141 -189.99012695 212.80738281 -190.17822266 211.80664062 C-192.90270188 196.6220085 -192.81136925 181.41552997 -192.81030273 166.03857422 C-192.81248653 162.5216862 -192.8306911 159.00511397 -192.84960938 155.48828125 C-192.89331503 138.45877002 -191.83458229 122.14502469 -188.375 105.4375 C-188.15884033 104.38481934 -187.94268066 103.33213867 -187.7199707 102.24755859 C-184.07598154 84.9876513 -179.00014842 68.77799339 -171.625 52.75 C-171.31336914 52.06099609 -171.00173828 51.37199219 -170.68066406 50.66210938 C-163.17920723 34.2303468 -153.31493449 19.59855867 -140.625 6.75 C-139.6659375 5.68265625 -139.6659375 5.68265625 -138.6875 4.59375 C-102.38561076 -34.83761245 -39.64959271 -31.32437611 0 0 Z " fill="#FEFEFE" transform="translate(4491.625,631.25)"/>
<path d="M0 0 C2.06827238 3.10240857 2.25035305 3.75098705 2.25365835 7.26141196 C2.25933013 8.13751777 2.26500191 9.01362357 2.27084556 9.91627803 C2.26691003 10.8814415 2.2629745 11.84660497 2.25891972 12.84101582 C2.26261618 13.86850257 2.26631265 14.89598933 2.27012113 15.95461205 C2.28016638 19.43197533 2.27586063 22.90917756 2.27174377 26.3865509 C2.27602666 28.8911674 2.28118846 31.39578253 2.28715843 33.90039557 C2.29816686 39.36388537 2.30294524 44.82732691 2.30232811 50.2908268 C2.3014503 58.41564192 2.31198811 66.54041381 2.32494953 74.66521721 C2.34645069 88.33467324 2.35878656 102.00412316 2.36609077 115.67359352 C2.37338894 129.22184894 2.38522893 142.77008871 2.40299797 156.31833458 C2.40465358 157.58140542 2.40465358 157.58140542 2.40634265 158.86999283 C2.41197868 163.14650249 2.41770656 167.42301202 2.42347669 171.6995215 C2.46428459 202.01639016 2.49657879 232.33326227 2.52319336 262.65014648 C2.5248066 264.48440461 2.52642004 266.31866274 2.52803367 268.15292086 C2.52883281 269.06172866 2.52963196 269.97053646 2.53045533 270.90688389 C2.5344987 275.50432885 2.53854706 280.1017738 2.54260254 284.69921875 C2.54340574 285.6107856 2.54420893 286.52235245 2.54503647 287.46154254 C2.56371769 308.61295429 2.58498903 329.76436315 2.60717773 350.91577148 C2.60859964 352.27405536 2.60859964 352.27405536 2.61005028 353.65977932 C2.63172197 374.34065833 2.65457376 395.0215356 2.67970943 415.7024107 C2.68076529 416.57214336 2.68182114 417.44187603 2.68290898 418.33796423 C2.69241832 426.16287589 2.70197334 433.9877875 2.71177601 441.8126988 C2.73621166 461.32154964 2.75773369 480.83039635 2.77204772 500.33925745 C2.78203725 513.94181697 2.79518939 527.54436995 2.81169481 541.14692316 C2.82136743 549.22462778 2.82822713 557.30232374 2.83109079 565.38003369 C2.83352655 571.41785958 2.84109335 577.45566774 2.85060786 583.49348708 C2.8536413 585.93171765 2.85500856 588.369951 2.85451955 590.80818341 C1.82683211 625.02007714 1.82683211 625.02007714 16 655 C33.06874003 667.93086366 56.44520144 669.540033 77 671 C77 675.95 77 680.9 77 686 C-1.21 686 -79.42 686 -160 686 C-160 681.05 -160 676.1 -160 671 C-157.6075 670.7525 -155.215 670.505 -152.75 670.25 C-120.79669141 666.60983734 -120.79669141 666.60983734 -94.75 649.5 C-88.93557423 640.72071123 -85.77659945 631.70882715 -84.34802818 621.36970806 C-84.22078364 620.45495177 -84.0935391 619.54019547 -83.96243867 618.59771929 C-82.66102255 608.48709445 -82.58191473 598.45083793 -82.61904907 588.27217102 C-82.61558269 586.16734949 -82.61081162 584.06252978 -82.60486734 581.95771378 C-82.59246256 576.23645957 -82.59847921 570.51535745 -82.60782599 564.79410303 C-82.61465961 558.59978596 -82.60411412 552.40549366 -82.59588623 546.21118164 C-82.58335927 534.79997258 -82.58438492 523.38883053 -82.59262064 511.9776219 C-82.60019186 501.43435275 -82.602126 490.89110112 -82.5985527 480.34782982 C-82.59820897 479.29543772 -82.59820897 479.29543772 -82.59785829 478.22178517 C-82.59692416 475.37322893 -82.59596895 472.52467269 -82.594979 469.67611647 C-82.58582 443.00264322 -82.59409431 416.3292004 -82.61026969 389.65573186 C-82.6245092 365.99467409 -82.62322662 342.33366477 -82.60888672 318.67260742 C-82.59280004 292.04082741 -82.5864651 265.40907424 -82.59572351 238.77729005 C-82.59668556 235.935101 -82.59762408 233.09291194 -82.5985527 230.25072289 C-82.59878994 229.55098941 -82.59902717 228.85125594 -82.59927159 228.13031842 C-82.60267415 217.59553664 -82.59871174 207.06077434 -82.59111404 196.52599525 C-82.58251356 184.54158505 -82.58501625 172.55723196 -82.60095628 160.57282392 C-82.60881466 154.4642363 -82.61197211 148.35574675 -82.60200882 142.24715996 C-82.5930112 136.64575745 -82.59807762 131.04454311 -82.61394148 125.44315746 C-82.61726788 123.42665644 -82.61564404 121.41013922 -82.60831411 119.39364878 C-82.30776686 92.56958984 -82.30776686 92.56958984 -93.6640625 69.078125 C-102.83501601 60.61907199 -113.67997721 58.61165651 -125.75 58.625 C-126.94761963 58.62371094 -128.14523926 58.62242187 -129.37915039 58.62109375 C-138.15477326 58.72467564 -146.17481582 59.81267184 -154.62109375 62.125 C-158 63 -158 63 -162 63 C-162 57.39 -162 51.78 -162 46 C-160.63617188 45.62230469 -159.27234375 45.24460937 -157.8671875 44.85546875 C-143.65361618 40.90377409 -129.47794108 36.83225858 -115.31307983 32.71014404 C-105.95991204 29.98953513 -96.60220315 27.31387564 -87.1875 24.8125 C-76.25261592 21.89624915 -65.51389513 18.39909579 -54.75585938 14.89453125 C-43.51565716 11.24604605 -32.20133928 7.83028802 -20.89013672 4.40991211 C-17.09109361 3.25881579 -13.30808886 2.10618936 -9.5546875 0.8125 C-6.22892647 -0.2452344 -3.46385445 -0.33306293 0 0 Z " fill="#444444" transform="translate(5312,355)"/>
<path d="M0 0 C0.94633301 0.20931152 1.89266602 0.41862305 2.86767578 0.63427734 C15.55103456 3.51047474 27.86978651 7.12725271 40.15625 11.36572266 C49.74820139 14.66549619 59.52206208 17.08219433 69.5 13.875 C72.22326804 12.05761756 72.22326804 12.05761756 74.0625 8.8125 C75.24243164 7.21801758 75.24243164 7.21801758 77 6 C80.13061523 5.7253418 80.13061523 5.7253418 83.68359375 5.82421875 C84.8636499 5.84959717 86.04370605 5.87497559 87.25952148 5.90112305 C88.16387939 5.93375244 89.0682373 5.96638184 90 6 C90.3932588 21.7953667 90.78451927 37.59078158 91.17345428 53.38625526 C91.35412257 60.7217197 91.53542451 68.05716741 91.71826172 75.39257812 C91.87777387 81.79225627 92.03605275 88.19196358 92.19290113 94.59170759 C92.27585562 97.97472131 92.35939333 101.35771818 92.44441223 104.74068069 C92.53942309 108.53362566 92.63225431 112.32661846 92.72460938 116.11962891 C92.7666877 117.76933937 92.7666877 117.76933937 92.80961609 119.45237732 C92.99760757 127.30335616 93.02181919 135.14675394 93 143 C87.72 143 82.44 143 77 143 C76.443125 140.916875 75.88625 138.83375 75.3125 136.6875 C75.1180127 135.96425537 74.92352539 135.24101074 74.72314453 134.49584961 C73.73719576 130.8188353 72.77993212 127.13731257 71.8671875 123.44140625 C65.50045975 97.91559363 55.64173778 74.57892941 39 54 C37.88625 52.515 37.88625 52.515 36.75 51 C27.0967834 39.56855929 13.65725689 32.37047325 0 27 C-1.20849609 26.51853516 -1.20849609 26.51853516 -2.44140625 26.02734375 C-13.05978289 22.13589448 -24.367842 21.67301668 -35.5625 21.75 C-36.69107422 21.74226562 -37.81964844 21.73453125 -38.98242188 21.7265625 C-55.05587947 21.76353423 -69.10048894 25.06327417 -82 35 C-82.81210937 35.62390625 -83.62421875 36.2478125 -84.4609375 36.890625 C-97.01158117 47.31731359 -105.41614405 62.92321272 -108 79 C-108.25788323 82.33983737 -108.28090812 85.65162051 -108.25 89 C-108.25773437 89.83789062 -108.26546875 90.67578125 -108.2734375 91.5390625 C-108.21451785 110.57011039 -98.73424319 126.08379336 -86 139.5625 C-70.8032293 154.13680411 -51.98191969 164.55269335 -33.45117188 174.25769043 C-29.95098152 176.09117399 -26.45846849 177.93920232 -22.96484375 179.78515625 C-22.27510468 180.1491452 -21.5853656 180.51313416 -20.87472534 180.88815308 C-14.17727891 184.42585367 -7.52262182 188.03949177 -0.88452148 191.68725586 C3.69525285 194.20284606 8.28732485 196.68970742 12.90625 199.1328125 C30.64295538 208.54595679 48.1036726 218.66617721 64 231 C64.83144531 231.64066406 65.66289062 232.28132812 66.51953125 232.94140625 C72.58642128 237.70358875 78.37857069 242.72046809 84 248 C84.5367334 248.50273438 85.0734668 249.00546875 85.62646484 249.5234375 C106.51714051 269.25188128 125.23637788 296.40963249 126.38667297 326.09606934 C126.46735074 329.75262181 126.46901709 333.40533621 126.4375 337.0625 C126.43379395 337.83279541 126.43008789 338.60309082 126.42626953 339.39672852 C126.21327361 370.52963274 116.24118272 397.92636443 95 421 C94.20851562 421.87398437 93.41703125 422.74796875 92.6015625 423.6484375 C78.48595934 438.51437172 60.57889298 448.44063266 41.82397461 456.23291016 C40.03030601 456.98725452 38.25314443 457.78046873 36.4765625 458.57421875 C24.0276073 463.67968914 10.25359365 465.27458814 -3 467 C-3.64928467 467.09643799 -4.29856934 467.19287598 -4.9675293 467.29223633 C-12.43185976 468.29636974 -19.96750824 468.25855564 -27.48608398 468.29516602 C-29.09001614 468.30650743 -30.69391625 468.32666275 -32.29760742 468.35668945 C-56.77609467 468.812115 -80.16287443 463.33111229 -103.75 457.3125 C-107.29334143 456.41953931 -110.83749767 455.52991297 -114.38214111 454.64213562 C-116.55784456 454.09607062 -118.73266797 453.54648268 -120.90643311 452.99275208 C-134.62975548 449.19531986 -134.62975548 449.19531986 -148.25 451.4375 C-150.9063258 453.91271268 -151.85725974 455.60801184 -153.5 458.75 C-154.655 460.1525 -155.81 461.555 -157 463 C-161.62 463 -166.24 463 -171 463 C-171 410.86 -171 358.72 -171 305 C-165.06 305 -159.12 305 -153 305 C-152.505 307.3925 -152.01 309.785 -151.5 312.25 C-141.85071418 356.28787517 -126.30652192 401.33296657 -87.11645508 427.37670898 C-75.94855619 434.41943986 -63.00305922 439.68176022 -50 442 C-48.91460937 442.20238281 -47.82921875 442.40476562 -46.7109375 442.61328125 C-21.26408994 446.68810324 5.86952031 444.39433899 27.48828125 429.2578125 C41.29080478 418.82737742 51.00754766 402.95055859 53.60546875 385.7578125 C55.96427046 363.29081007 51.63176376 343.46175199 37.34765625 325.56640625 C24.49413772 310.42781776 7.38837234 300.48238189 -9.70214844 290.86083984 C-13.10526305 288.94060446 -16.49581249 286.99922391 -19.8828125 285.05078125 C-30.168533 279.13932312 -40.47958167 273.27692255 -50.84521484 267.50634766 C-77.58906903 252.61737637 -104.60531463 237.1125469 -127 216 C-128.30914889 214.89186216 -129.62159012 213.78760066 -130.9375 212.6875 C-145.81273998 199.6379937 -156.33653356 184.13235072 -164 166 C-164.42152344 165.02289062 -164.84304688 164.04578125 -165.27734375 163.0390625 C-170.48732483 149.94529873 -171.56022914 136.17837564 -171.4375 122.25 C-171.43445862 121.51187073 -171.43141724 120.77374146 -171.42828369 120.01324463 C-171.35542073 108.00769561 -170.50669787 96.53954458 -167 85 C-166.78569336 84.29294922 -166.57138672 83.58589844 -166.35058594 82.85742188 C-156.74029992 52.44583264 -133.78766571 27.65672449 -105.80908203 12.93798828 C-105.21208496 12.62845215 -104.61508789 12.31891602 -104 12 C-103.09096924 11.52602783 -103.09096924 11.52602783 -102.16357422 11.04248047 C-93.04950007 6.36189119 -84.02970442 3.26749364 -74 1 C-72.74316406 0.71253906 -71.48632812 0.42507813 -70.19140625 0.12890625 C-47.66434991 -4.85326811 -22.59018192 -5.01265367 0 0 Z " fill="#454545" transform="translate(5632,582)"/>
<path d="M0 0 C0.94633301 0.20931152 1.89266602 0.41862305 2.86767578 0.63427734 C15.55103456 3.51047474 27.86978651 7.12725271 40.15625 11.36572266 C49.74820139 14.66549619 59.52206208 17.08219433 69.5 13.875 C72.22326804 12.05761756 72.22326804 12.05761756 74.0625 8.8125 C75.24243164 7.21801758 75.24243164 7.21801758 77 6 C80.13061523 5.7253418 80.13061523 5.7253418 83.68359375 5.82421875 C84.8636499 5.84959717 86.04370605 5.87497559 87.25952148 5.90112305 C88.16387939 5.93375244 89.0682373 5.96638184 90 6 C90.3932588 21.7953667 90.78451927 37.59078158 91.17345428 53.38625526 C91.35412257 60.7217197 91.53542451 68.05716741 91.71826172 75.39257812 C91.87777387 81.79225627 92.03605275 88.19196358 92.19290113 94.59170759 C92.27585562 97.97472131 92.35939333 101.35771818 92.44441223 104.74068069 C92.53942309 108.53362566 92.63225431 112.32661846 92.72460938 116.11962891 C92.7666877 117.76933937 92.7666877 117.76933937 92.80961609 119.45237732 C92.99760757 127.30335616 93.02181919 135.14675394 93 143 C87.72 143 82.44 143 77 143 C76.443125 140.916875 75.88625 138.83375 75.3125 136.6875 C75.1180127 135.96425537 74.92352539 135.24101074 74.72314453 134.49584961 C73.73719576 130.8188353 72.77993212 127.13731257 71.8671875 123.44140625 C65.50045975 97.91559363 55.64173778 74.57892941 39 54 C37.88625 52.515 37.88625 52.515 36.75 51 C27.0967834 39.56855929 13.65725689 32.37047325 0 27 C-1.20849609 26.51853516 -1.20849609 26.51853516 -2.44140625 26.02734375 C-13.05978289 22.13589448 -24.367842 21.67301668 -35.5625 21.75 C-36.69107422 21.74226562 -37.81964844 21.73453125 -38.98242188 21.7265625 C-55.05587947 21.76353423 -69.10048894 25.06327417 -82 35 C-82.81210938 35.62390625 -83.62421875 36.2478125 -84.4609375 36.890625 C-97.01158117 47.31731359 -105.41614405 62.92321272 -108 79 C-108.25788323 82.33983737 -108.28090812 85.65162051 -108.25 89 C-108.25773437 89.83789062 -108.26546875 90.67578125 -108.2734375 91.5390625 C-108.21451785 110.57011039 -98.73424319 126.08379336 -86 139.5625 C-70.8032293 154.13680411 -51.98191969 164.55269335 -33.45117188 174.25769043 C-29.95098152 176.09117399 -26.45846849 177.93920232 -22.96484375 179.78515625 C-22.27510468 180.1491452 -21.5853656 180.51313416 -20.87472534 180.88815308 C-14.17727891 184.42585367 -7.52262182 188.03949177 -0.88452148 191.68725586 C3.69525285 194.20284606 8.28732485 196.68970742 12.90625 199.1328125 C30.64295538 208.54595679 48.1036726 218.66617721 64 231 C64.83144531 231.64066406 65.66289062 232.28132812 66.51953125 232.94140625 C72.58642128 237.70358875 78.37857069 242.72046809 84 248 C84.5367334 248.50273438 85.0734668 249.00546875 85.62646484 249.5234375 C106.51714051 269.25188128 125.23637788 296.40963249 126.38667297 326.09606934 C126.46735074 329.75262181 126.46901709 333.40533621 126.4375 337.0625 C126.43379395 337.83279541 126.43008789 338.60309082 126.42626953 339.39672852 C126.21327361 370.52963274 116.24118272 397.92636443 95 421 C94.20851563 421.87398437 93.41703125 422.74796875 92.6015625 423.6484375 C78.48595934 438.51437172 60.57889298 448.44063266 41.82397461 456.23291016 C40.03030601 456.98725452 38.25314443 457.78046873 36.4765625 458.57421875 C24.0276073 463.67968914 10.25359365 465.27458814 -3 467 C-3.64928467 467.09643799 -4.29856934 467.19287598 -4.9675293 467.29223633 C-12.43185976 468.29636974 -19.96750824 468.25855564 -27.48608398 468.29516602 C-29.09001614 468.30650743 -30.69391625 468.32666275 -32.29760742 468.35668945 C-56.77609467 468.812115 -80.16287443 463.33111229 -103.75 457.3125 C-107.29334143 456.41953931 -110.83749767 455.52991297 -114.38214111 454.64213562 C-116.55784456 454.09607062 -118.73266797 453.54648268 -120.90643311 452.99275208 C-134.62975548 449.19531986 -134.62975548 449.19531986 -148.25 451.4375 C-150.9063258 453.91271268 -151.85725974 455.60801184 -153.5 458.75 C-154.655 460.1525 -155.81 461.555 -157 463 C-161.62 463 -166.24 463 -171 463 C-171 410.86 -171 358.72 -171 305 C-165.06 305 -159.12 305 -153 305 C-152.505 307.3925 -152.01 309.785 -151.5 312.25 C-141.85071418 356.28787517 -126.30652192 401.33296657 -87.11645508 427.37670898 C-75.94855619 434.41943986 -63.00305922 439.68176022 -50 442 C-48.91460938 442.20238281 -47.82921875 442.40476562 -46.7109375 442.61328125 C-21.26408994 446.68810324 5.86952031 444.39433899 27.48828125 429.2578125 C41.29080478 418.82737742 51.00754766 402.95055859 53.60546875 385.7578125 C55.96427046 363.29081007 51.63176376 343.46175199 37.34765625 325.56640625 C24.49413772 310.42781776 7.38837234 300.48238189 -9.70214844 290.86083984 C-13.10526305 288.94060446 -16.49581249 286.99922391 -19.8828125 285.05078125 C-30.168533 279.13932312 -40.47958167 273.27692255 -50.84521484 267.50634766 C-77.58906903 252.61737637 -104.60531463 237.1125469 -127 216 C-128.30914889 214.89186216 -129.62159012 213.78760066 -130.9375 212.6875 C-145.81273998 199.6379937 -156.33653356 184.13235072 -164 166 C-164.42152344 165.02289062 -164.84304687 164.04578125 -165.27734375 163.0390625 C-170.48732483 149.94529873 -171.56022914 136.17837564 -171.4375 122.25 C-171.43445862 121.51187073 -171.43141724 120.77374146 -171.42828369 120.01324463 C-171.35542073 108.00769561 -170.50669787 96.53954458 -167 85 C-166.78569336 84.29294922 -166.57138672 83.58589844 -166.35058594 82.85742188 C-156.74029992 52.44583264 -133.78766571 27.65672449 -105.80908203 12.93798828 C-105.21208496 12.62845215 -104.61508789 12.31891602 -104 12 C-103.09096924 11.52602783 -103.09096924 11.52602783 -102.16357422 11.04248047 C-93.04950007 6.36189119 -84.02970442 3.26749364 -74 1 C-72.74316406 0.71253906 -71.48632812 0.42507813 -70.19140625 0.12890625 C-47.66434991 -4.85326811 -22.59018192 -5.01265367 0 0 Z " fill="#454545" transform="translate(2742,582)"/>
<path d="M0 0 C0.94633301 0.20931152 1.89266602 0.41862305 2.86767578 0.63427734 C15.55103456 3.51047474 27.86978651 7.12725271 40.15625 11.36572266 C49.74820139 14.66549619 59.52206208 17.08219433 69.5 13.875 C72.22326804 12.05761756 72.22326804 12.05761756 74.0625 8.8125 C75.24243164 7.21801758 75.24243164 7.21801758 77 6 C80.13061523 5.7253418 80.13061523 5.7253418 83.68359375 5.82421875 C84.8636499 5.84959717 86.04370605 5.87497559 87.25952148 5.90112305 C88.16387939 5.93375244 89.0682373 5.96638184 90 6 C90.3932588 21.7953667 90.78451927 37.59078158 91.17345428 53.38625526 C91.35412257 60.7217197 91.53542451 68.05716741 91.71826172 75.39257812 C91.87777387 81.79225627 92.03605275 88.19196358 92.19290113 94.59170759 C92.27585562 97.97472131 92.35939333 101.35771818 92.44441223 104.74068069 C92.53942309 108.53362566 92.63225431 112.32661846 92.72460938 116.11962891 C92.7666877 117.76933937 92.7666877 117.76933937 92.80961609 119.45237732 C92.99760757 127.30335616 93.02181919 135.14675394 93 143 C87.72 143 82.44 143 77 143 C76.443125 140.916875 75.88625 138.83375 75.3125 136.6875 C75.1180127 135.96425537 74.92352539 135.24101074 74.72314453 134.49584961 C73.73719576 130.8188353 72.77993212 127.13731257 71.8671875 123.44140625 C65.50045975 97.91559363 55.64173778 74.57892941 39 54 C37.88625 52.515 37.88625 52.515 36.75 51 C27.0967834 39.56855929 13.65725689 32.37047325 0 27 C-1.20849609 26.51853516 -1.20849609 26.51853516 -2.44140625 26.02734375 C-13.05978289 22.13589448 -24.367842 21.67301668 -35.5625 21.75 C-36.69107422 21.74226562 -37.81964844 21.73453125 -38.98242188 21.7265625 C-55.05587947 21.76353423 -69.10048894 25.06327417 -82 35 C-82.81210938 35.62390625 -83.62421875 36.2478125 -84.4609375 36.890625 C-97.01158117 47.31731359 -105.41614405 62.92321272 -108 79 C-108.25788323 82.33983737 -108.28090812 85.65162051 -108.25 89 C-108.25773437 89.83789062 -108.26546875 90.67578125 -108.2734375 91.5390625 C-108.21451785 110.57011039 -98.73424319 126.08379336 -86 139.5625 C-70.8032293 154.13680411 -51.98191969 164.55269335 -33.45117188 174.25769043 C-29.95098152 176.09117399 -26.45846849 177.93920232 -22.96484375 179.78515625 C-22.27510468 180.1491452 -21.5853656 180.51313416 -20.87472534 180.88815308 C-14.17727891 184.42585367 -7.52262182 188.03949177 -0.88452148 191.68725586 C3.69525285 194.20284606 8.28732485 196.68970742 12.90625 199.1328125 C30.64295538 208.54595679 48.1036726 218.66617721 64 231 C64.83144531 231.64066406 65.66289063 232.28132812 66.51953125 232.94140625 C72.58642128 237.70358875 78.37857069 242.72046809 84 248 C84.5367334 248.50273438 85.0734668 249.00546875 85.62646484 249.5234375 C106.51714051 269.25188128 125.23637788 296.40963249 126.38667297 326.09606934 C126.46735074 329.75262181 126.46901709 333.40533621 126.4375 337.0625 C126.43379395 337.83279541 126.43008789 338.60309082 126.42626953 339.39672852 C126.21327361 370.52963274 116.24118272 397.92636443 95 421 C94.20851563 421.87398437 93.41703125 422.74796875 92.6015625 423.6484375 C78.48595934 438.51437172 60.57889298 448.44063266 41.82397461 456.23291016 C40.03030601 456.98725452 38.25314443 457.78046873 36.4765625 458.57421875 C24.0276073 463.67968914 10.25359365 465.27458814 -3 467 C-3.64928467 467.09643799 -4.29856934 467.19287598 -4.9675293 467.29223633 C-12.43185976 468.29636974 -19.96750824 468.25855564 -27.48608398 468.29516602 C-29.09001614 468.30650743 -30.69391625 468.32666275 -32.29760742 468.35668945 C-56.77609467 468.812115 -80.16287443 463.33111229 -103.75 457.3125 C-107.29334143 456.41953931 -110.83749767 455.52991297 -114.38214111 454.64213562 C-116.55784456 454.09607062 -118.73266797 453.54648268 -120.90643311 452.99275208 C-134.62975548 449.19531986 -134.62975548 449.19531986 -148.25 451.4375 C-150.9063258 453.91271268 -151.85725974 455.60801184 -153.5 458.75 C-154.655 460.1525 -155.81 461.555 -157 463 C-161.62 463 -166.24 463 -171 463 C-171 410.86 -171 358.72 -171 305 C-165.06 305 -159.12 305 -153 305 C-152.505 307.3925 -152.01 309.785 -151.5 312.25 C-141.85071418 356.28787517 -126.30652192 401.33296657 -87.11645508 427.37670898 C-75.94855619 434.41943986 -63.00305922 439.68176022 -50 442 C-48.91460938 442.20238281 -47.82921875 442.40476562 -46.7109375 442.61328125 C-21.26408994 446.68810324 5.86952031 444.39433899 27.48828125 429.2578125 C41.29080478 418.82737742 51.00754766 402.95055859 53.60546875 385.7578125 C55.96427046 363.29081007 51.63176376 343.46175199 37.34765625 325.56640625 C24.49413772 310.42781776 7.38837234 300.48238189 -9.70214844 290.86083984 C-13.10526305 288.94060446 -16.49581249 286.99922391 -19.8828125 285.05078125 C-30.168533 279.13932312 -40.47958167 273.27692255 -50.84521484 267.50634766 C-77.58906903 252.61737637 -104.60531463 237.1125469 -127 216 C-128.30914889 214.89186216 -129.62159012 213.78760066 -130.9375 212.6875 C-145.81273998 199.6379937 -156.33653356 184.13235072 -164 166 C-164.42152344 165.02289062 -164.84304688 164.04578125 -165.27734375 163.0390625 C-170.48732483 149.94529873 -171.56022914 136.17837564 -171.4375 122.25 C-171.43445862 121.51187073 -171.43141724 120.77374146 -171.42828369 120.01324463 C-171.35542073 108.00769561 -170.50669787 96.53954458 -167 85 C-166.78569336 84.29294922 -166.57138672 83.58589844 -166.35058594 82.85742188 C-156.74029992 52.44583264 -133.78766571 27.65672449 -105.80908203 12.93798828 C-105.21208496 12.62845215 -104.61508789 12.31891602 -104 12 C-103.09096924 11.52602783 -103.09096924 11.52602783 -102.16357422 11.04248047 C-93.04950007 6.36189119 -84.02970442 3.26749364 -74 1 C-72.74316406 0.71253906 -71.48632812 0.42507813 -70.19140625 0.12890625 C-47.66434991 -4.85326811 -22.59018192 -5.01265367 0 0 Z " fill="#454545" transform="translate(1353,582)"/>
<path d="M0 0 C3.66467066 0.47717066 3.66467066 0.47717066 5 1.8125 C5.09608663 3.45740549 5.12187787 5.10645691 5.12025452 6.75416565 C5.12231651 8.35912399 5.12231651 8.35912399 5.12442017 9.99650574 C5.12082489 11.18045425 5.11722961 12.36440277 5.11352539 13.58422852 C5.11367142 14.823078 5.11381744 16.06192749 5.1139679 17.33831787 C5.11338892 20.74519833 5.10835959 24.15201884 5.10139394 27.55888867 C5.09515993 31.11566826 5.09455656 34.67244858 5.09336853 38.22923279 C5.09025535 44.96886582 5.08204215 51.70848271 5.07201904 58.44810861 C5.05877211 67.55228892 5.05335789 76.65647362 5.04751682 85.76066113 C5.03810225 100.11128618 5.01818325 114.46187717 5 128.8125 C37.67 128.8125 70.34 128.8125 104 128.8125 C104 140.6925 104 152.5725 104 164.8125 C71 164.8125 38 164.8125 4 164.8125 C3.9337487 202.92806241 3.87840058 241.04357011 3.84680401 279.15917371 C3.84305231 283.66853453 3.8391693 288.17789522 3.83520508 292.68725586 C3.83441815 293.584913 3.83363122 294.48257014 3.83282044 295.40742902 C3.81979944 309.90414662 3.79616401 324.4008282 3.76854161 338.8975245 C3.74039506 353.79457713 3.72380428 368.69161102 3.71773452 383.58868915 C3.71363717 392.7661963 3.70074014 401.94360158 3.6762506 411.12107734 C3.66027894 417.43147865 3.65562521 423.74182801 3.65949587 430.05224802 C3.66139983 433.68217189 3.65867578 437.31191894 3.64238358 440.94181061 C3.57474805 456.81773406 4.03042426 472.18748067 7 487.8125 C7.1656592 488.68894303 7.33131841 489.56538605 7.50199759 490.46838796 C9.76714688 502.13691721 13.65736564 513.06470459 22 521.8125 C22.53238281 522.37324219 23.06476562 522.93398438 23.61328125 523.51171875 C32.12338351 531.57498986 42.387529 533.99172163 53.6875 534 C54.54794922 534.01224609 55.40839844 534.02449219 56.29492188 534.03710938 C74.67299612 534.0786574 89.22194819 525.66717935 102 513 C103.00532999 511.94254179 104.00590953 510.88053108 105 509.8125 C108 506.8125 111 503.8125 114 500.8125 C118.06498881 502.18434347 120.67396561 504.03318459 123.8125 506.9375 C124.60269531 507.66195313 125.39289062 508.38640625 126.20703125 509.1328125 C126.79871094 509.68710937 127.39039062 510.24140625 128 510.8125 C126.39787694 515.90745037 123.30174565 519.66265296 120.0625 523.8125 C119.48129395 524.56289551 118.90008789 525.31329102 118.30126953 526.08642578 C94.55870394 556.55335238 65.22994948 582.52521107 25.64648438 588.52392578 C1.48725825 591.15826206 -24.80361708 589.02930741 -44.57177734 573.58447266 C-67.25249456 554.90011308 -76.70261636 525.7768467 -79.6065197 497.36112309 C-81.0717685 481.05560884 -81.27958264 464.80797265 -81.23213124 448.44890368 C-81.22333053 444.62585892 -81.22642838 440.80281891 -81.22793579 436.97976685 C-81.22897436 430.38746937 -81.22280688 423.7952121 -81.21146011 417.20292473 C-81.19506633 407.67209738 -81.18998308 398.14128906 -81.18748413 388.61044914 C-81.18312854 373.13978391 -81.16987806 357.66914001 -81.15087891 342.19848633 C-81.13246436 327.18807073 -81.1183353 312.17766097 -81.10986328 297.16723633 C-81.10907511 295.77469404 -81.10907511 295.77469404 -81.10827102 294.35401957 C-81.10566056 289.69577117 -81.10313324 285.03752272 -81.10064721 280.37927425 C-81.07998138 241.85700125 -81.04481483 203.33475204 -81 164.8125 C-81.66763367 164.82138245 -82.33526733 164.83026489 -83.02313232 164.8394165 C-89.96585538 164.92784473 -96.90841871 164.98821576 -103.8515625 165.03222656 C-106.44342546 165.05235375 -109.03524296 165.07965816 -111.62695312 165.11425781 C-115.35037449 165.16272501 -119.07319599 165.18545816 -122.796875 165.203125 C-124.53768341 165.23409271 -124.53768341 165.23409271 -126.31365967 165.26568604 C-127.93488739 165.26613922 -127.93488739 165.26613922 -129.58886719 165.26660156 C-130.53928894 165.27548401 -131.48971069 165.28436646 -132.46893311 165.29351807 C-135.79237597 164.66191245 -136.9657949 163.47238872 -139 160.8125 C-139.81368375 154.50645093 -138.93709588 151.95602064 -135 146.8125 C-132.96146504 144.78022461 -130.78591422 142.95099236 -128.5625 141.125 C-127.94850342 140.60953613 -127.33450684 140.09407227 -126.7019043 139.56298828 C-124.80659289 137.97299617 -122.90351475 136.39265493 -121 134.8125 C-118.76666462 132.9424255 -116.53854221 131.06624741 -114.3125 129.1875 C-113.77931152 128.73834229 -113.24612305 128.28918457 -112.69677734 127.82641602 C-108.19159256 124.01417747 -103.82135363 120.06451529 -99.4765625 116.0703125 C-97.36999516 114.1498142 -95.23210487 112.28568193 -93.0625 110.4375 C-83.79319862 102.34585576 -75.576964 93.49635727 -68 83.8125 C-67.15295885 82.74430362 -66.30527682 81.6766152 -65.45703125 80.609375 C-58.7990084 72.20839513 -52.2895946 63.69398708 -45.79492188 55.16650391 C-43.90301501 52.68530614 -42.00649593 50.2076817 -40.109375 47.73046875 C-33.52308228 39.12131175 -26.98626927 30.48124328 -20.5625 21.75 C-19.69407471 20.57981323 -19.69407471 20.57981323 -18.80810547 19.38598633 C-16.27157755 15.95914664 -13.78335398 12.52677729 -11.4453125 8.9609375 C-5.53797207 0.12171367 -5.53797207 0.12171367 0 0 Z " fill="#444444" transform="translate(2393,461.1875)"/>
<path d="M0 0 C3.66467066 0.47717066 3.66467066 0.47717066 5 1.8125 C5.09608663 3.45740549 5.12187787 5.10645691 5.12025452 6.75416565 C5.12231651 8.35912399 5.12231651 8.35912399 5.12442017 9.99650574 C5.12082489 11.18045425 5.11722961 12.36440277 5.11352539 13.58422852 C5.11367142 14.823078 5.11381744 16.06192749 5.1139679 17.33831787 C5.11338892 20.74519833 5.10835959 24.15201884 5.10139394 27.55888867 C5.09515993 31.11566826 5.09455656 34.67244858 5.09336853 38.22923279 C5.09025535 44.96886582 5.08204215 51.70848271 5.07201904 58.44810861 C5.05877211 67.55228892 5.05335789 76.65647362 5.04751682 85.76066113 C5.03810225 100.11128618 5.01818325 114.46187717 5 128.8125 C37.67 128.8125 70.34 128.8125 104 128.8125 C104 140.6925 104 152.5725 104 164.8125 C71 164.8125 38 164.8125 4 164.8125 C3.9337487 202.92806241 3.87840058 241.04357011 3.84680401 279.15917371 C3.84305231 283.66853453 3.8391693 288.17789522 3.83520508 292.68725586 C3.83441815 293.584913 3.83363122 294.48257014 3.83282044 295.40742902 C3.81979944 309.90414662 3.79616401 324.4008282 3.76854161 338.8975245 C3.74039506 353.79457713 3.72380428 368.69161102 3.71773452 383.58868915 C3.71363717 392.7661963 3.70074014 401.94360158 3.6762506 411.12107734 C3.66027894 417.43147865 3.65562521 423.74182801 3.65949587 430.05224802 C3.66139983 433.68217189 3.65867578 437.31191894 3.64238358 440.94181061 C3.57474805 456.81773406 4.03042426 472.18748067 7 487.8125 C7.1656592 488.68894303 7.33131841 489.56538605 7.50199759 490.46838796 C9.76714688 502.13691721 13.65736564 513.06470459 22 521.8125 C22.53238281 522.37324219 23.06476563 522.93398438 23.61328125 523.51171875 C32.12338351 531.57498986 42.387529 533.99172163 53.6875 534 C54.54794922 534.01224609 55.40839844 534.02449219 56.29492188 534.03710938 C74.67299612 534.0786574 89.22194819 525.66717935 102 513 C103.00532999 511.94254179 104.00590953 510.88053108 105 509.8125 C108 506.8125 111 503.8125 114 500.8125 C118.06498881 502.18434347 120.67396561 504.03318459 123.8125 506.9375 C124.60269531 507.66195313 125.39289063 508.38640625 126.20703125 509.1328125 C126.79871094 509.68710937 127.39039063 510.24140625 128 510.8125 C126.39787694 515.90745037 123.30174565 519.66265296 120.0625 523.8125 C119.48129395 524.56289551 118.90008789 525.31329102 118.30126953 526.08642578 C94.55870394 556.55335238 65.22994948 582.52521107 25.64648438 588.52392578 C1.48725825 591.15826206 -24.80361708 589.02930741 -44.57177734 573.58447266 C-67.25249456 554.90011308 -76.70261636 525.7768467 -79.6065197 497.36112309 C-81.0717685 481.05560884 -81.27958264 464.80797265 -81.23213124 448.44890368 C-81.22333053 444.62585892 -81.22642838 440.80281891 -81.22793579 436.97976685 C-81.22897436 430.38746937 -81.22280688 423.7952121 -81.21146011 417.20292473 C-81.19506633 407.67209738 -81.18998308 398.14128906 -81.18748413 388.61044914 C-81.18312854 373.13978391 -81.16987806 357.66914001 -81.15087891 342.19848633 C-81.13246436 327.18807073 -81.1183353 312.17766097 -81.10986328 297.16723633 C-81.10907511 295.77469404 -81.10907511 295.77469404 -81.10827102 294.35401957 C-81.10566056 289.69577117 -81.10313324 285.03752272 -81.10064721 280.37927425 C-81.07998138 241.85700125 -81.04481483 203.33475204 -81 164.8125 C-81.66763367 164.82138245 -82.33526733 164.83026489 -83.02313232 164.8394165 C-89.96585538 164.92784473 -96.90841871 164.98821576 -103.8515625 165.03222656 C-106.44342546 165.05235375 -109.03524296 165.07965816 -111.62695312 165.11425781 C-115.35037449 165.16272501 -119.07319599 165.18545816 -122.796875 165.203125 C-124.53768341 165.23409271 -124.53768341 165.23409271 -126.31365967 165.26568604 C-127.93488739 165.26613922 -127.93488739 165.26613922 -129.58886719 165.26660156 C-130.53928894 165.27548401 -131.48971069 165.28436646 -132.46893311 165.29351807 C-135.79237597 164.66191245 -136.9657949 163.47238872 -139 160.8125 C-139.81368375 154.50645093 -138.93709588 151.95602064 -135 146.8125 C-132.96146504 144.78022461 -130.78591422 142.95099236 -128.5625 141.125 C-127.94850342 140.60953613 -127.33450684 140.09407227 -126.7019043 139.56298828 C-124.80659289 137.97299617 -122.90351475 136.39265493 -121 134.8125 C-118.76666462 132.9424255 -116.53854221 131.06624741 -114.3125 129.1875 C-113.77931152 128.73834229 -113.24612305 128.28918457 -112.69677734 127.82641602 C-108.19159256 124.01417747 -103.82135363 120.06451529 -99.4765625 116.0703125 C-97.36999516 114.1498142 -95.23210487 112.28568193 -93.0625 110.4375 C-83.79319862 102.34585576 -75.576964 93.49635727 -68 83.8125 C-67.15295885 82.74430362 -66.30527682 81.6766152 -65.45703125 80.609375 C-58.7990084 72.20839513 -52.2895946 63.69398708 -45.79492188 55.16650391 C-43.90301501 52.68530614 -42.00649593 50.2076817 -40.109375 47.73046875 C-33.52308228 39.12131175 -26.98626927 30.48124328 -20.5625 21.75 C-19.69407471 20.57981323 -19.69407471 20.57981323 -18.80810547 19.38598633 C-16.27157755 15.95914664 -13.78335398 12.52677729 -11.4453125 8.9609375 C-5.53797207 0.12171367 -5.53797207 0.12171367 0 0 Z " fill="#444444" transform="translate(1671,461.1875)"/>
<path d="M0 0 C0.85207031 0.68707031 1.70414063 1.37414062 2.58203125 2.08203125 C22.08613889 18.63748639 36.13761727 44.28764192 38.33374023 69.89086914 C38.54567253 74.09404489 38.57782765 78.29223581 38.5625 82.5 C38.56301361 83.24268127 38.56352722 83.98536255 38.5640564 84.75054932 C38.52617901 97.63474131 36.69543011 108.93478611 32 121 C31.60554687 122.13566406 31.21109375 123.27132812 30.8046875 124.44140625 C21.61698039 149.08116624 0.58834017 169.82263963 -22.94824219 180.91845703 C-30.71303719 184.36926102 -38.70013696 187.15150543 -47 189 C-47.89460937 189.20496094 -48.78921875 189.40992188 -49.7109375 189.62109375 C-78.17876548 195.27566232 -106.11046761 187.46820313 -130.1875 172.25 C-154.49497866 155.38358624 -170.30835998 129.77406426 -176.0859375 100.82421875 C-181.03984815 72.49044197 -173.69052827 43.94538762 -157.3125 20.5625 C-139.3096486 -3.37310924 -114.08276145 -19.93601848 -84.171875 -24.53515625 C-54.06896 -28.3521366 -23.36545993 -19.19422022 0 0 Z " fill="#3F51B5" transform="translate(492,67)"/>
<path d="M0 0 C0.71872284 0.0004834 1.43744568 0.0009668 2.177948 0.00146484 C21.53923015 0.09151607 38.29551791 4.88830622 55.0625 14.5625 C56.05378906 15.11679687 57.04507813 15.67109375 58.06640625 16.2421875 C82.87681153 30.99432037 98.79466326 56.06637822 106.3359375 83.37890625 C112.66570313 111.11416964 107.02877422 141.56863294 92.0625 165.5625 C89.28357382 169.73630511 86.22253632 173.67145346 83.0625 177.5625 C82.48886719 178.28953125 81.91523438 179.0165625 81.32421875 179.765625 C65.08294556 199.45671517 38.33182951 212.94890828 13.0625 215.5625 C-16.9674235 217.57191926 -45.15822284 210.37323794 -68.4765625 190.7734375 C-90.17887192 171.27580713 -105.07333659 146.02292102 -107.15869141 116.42285156 C-107.27523455 113.21617927 -107.31730281 110.02125608 -107.3125 106.8125 C-107.31088867 105.67796387 -107.30927734 104.54342773 -107.30761719 103.37451172 C-107.17382879 94.16278703 -105.83535776 86.29646153 -102.9375 77.5625 C-102.52177734 76.06009766 -102.52177734 76.06009766 -102.09765625 74.52734375 C-94.0455194 46.95712402 -73.67839135 25.39600023 -49.00854492 11.66967773 C-33.6027749 3.41403303 -17.37328807 -0.07237299 0 0 Z " fill="#3F51B5" transform="translate(338.9375,822.4375)"/>
<path d="M0 0 C21.30332827 18.03054566 35.40715297 42.93347614 38.8671875 70.80078125 C38.95869534 72.40355486 39.01787645 74.0083196 39.0546875 75.61328125 C39.10496094 76.78632812 39.15523437 77.959375 39.20703125 79.16796875 C40.04557572 106.28090675 30.65652324 134.64109084 12.0546875 154.61328125 C11.58579102 155.12842285 11.11689453 155.64356445 10.63378906 156.17431641 C-7.14631398 175.57131555 -32.10893244 189.3100504 -58.77636719 190.76806641 C-89.14006085 191.88027285 -116.80782066 185.6375562 -139.88427734 164.86816406 C-147.44536606 157.82681984 -154.71315147 150.58815601 -159.9453125 141.61328125 C-160.29255371 141.0291748 -160.63979492 140.44506836 -160.99755859 139.84326172 C-175.99294966 114.31470962 -180.99652758 85.49735493 -173.9453125 56.61328125 C-169.37508895 39.174742 -160.77479206 24.11548133 -148.9453125 10.61328125 C-148.22859375 9.79472656 -147.511875 8.97617187 -146.7734375 8.1328125 C-132.49020501 -7.03640998 -113.12361399 -17.52997331 -92.9453125 -22.38671875 C-92.0584375 -22.60972656 -91.1715625 -22.83273437 -90.2578125 -23.0625 C-58.6334707 -29.66587819 -24.75373555 -20.28744186 0 0 Z " fill="#3F51B5" transform="translate(604.9453125,630.38671875)"/>
<path d="M0 0 C1.56998334 1.32451363 3.13281686 2.65756029 4.6875 4 C5.42226562 4.59039062 6.15703125 5.18078125 6.9140625 5.7890625 C25.59361835 21.30035446 39.17152343 46.26189876 41.52197266 70.48242188 C43.60966232 102.23501159 37.95513644 131.31557085 16.6875 156 C-1.6234794 176.66349257 -26.80789565 191.44212076 -54.81860352 193.22290039 C-58.54845817 193.33902726 -62.26835053 193.3802354 -66 193.375 C-66.65791534 193.37445618 -67.31583069 193.37391235 -67.99368286 193.37335205 C-78.67755851 193.33284784 -88.21149697 192.45305855 -98.3125 189 C-99.25488525 188.68651611 -99.25488525 188.68651611 -100.21630859 188.36669922 C-126.23329177 179.53561034 -148.82625897 160.58179358 -161.31738281 136.02441406 C-174.3989332 108.87526677 -177.35069461 80.37323352 -168.21484375 51.53515625 C-158.07940935 23.19029734 -138.0684266 0.72485834 -110.9375 -12.375 C-74.83202607 -29.07126972 -31.44046067 -24.64121994 0 0 Z " fill="#3F51B5" transform="translate(228.3125,223)"/>
<path d="M0 0 C22.63312641 18.29327936 37.63304804 44.19884751 41.34765625 73.21484375 C42.18317373 87.65258587 41.61835519 101.35879831 37.34765625 115.21484375 C37.03417236 116.23433105 37.03417236 116.23433105 36.71435547 117.27441406 C31.46491375 133.71873262 23.00756627 147.56984149 11.34765625 160.21484375 C10.76628906 160.87742187 10.18492187 161.54 9.5859375 162.22265625 C-7.50309575 180.73218848 -35.39113309 192.5271867 -60.30859375 193.55078125 C-92.48100939 194.04729441 -119.30396643 183.78593472 -143.14453125 161.78515625 C-156.46184179 148.13595012 -164.96836227 132.32022411 -170.65234375 114.21484375 C-171.07386719 112.88658569 -171.07386719 112.88658569 -171.50390625 111.53149414 C-173.95855227 102.92781373 -174.21021475 94.52128796 -174.15234375 85.65234375 C-174.14991669 84.90161591 -174.14748962 84.15088806 -174.14498901 83.37741089 C-174.06997152 71.40662496 -173.18260984 60.39862143 -168.65234375 49.21484375 C-168.33587891 48.42625977 -168.01941406 47.63767578 -167.69335938 46.82519531 C-159.00264463 25.82677312 -144.6243852 5.82059985 -124.65234375 -5.78515625 C-124.04696777 -6.13771484 -123.4415918 -6.49027344 -122.81787109 -6.85351562 C-84.29510393 -28.99367639 -35.60209286 -27.6736161 0 0 Z " fill="#3F51B5" transform="translate(988.65234375,666.78515625)"/>
<path d="M0 0 C1.32784107 0.42926467 2.65597582 0.8576218 3.984375 1.28515625 C31.73459359 10.59173333 52.83147673 31.03717728 66.01171875 56.84765625 C78.05623588 81.75855917 80.02617782 110.77798964 71.05029297 136.95922852 C61.07857075 164.54150052 42.12198502 187.77587732 15.3125 200.375 C12.55668862 201.62018913 9.78343556 202.81812153 7 204 C6.04609375 204.42152344 5.0921875 204.84304688 4.109375 205.27734375 C-19.18354992 214.74456017 -47.97392114 213.30035306 -71.0625 204.125 C-99.6684389 191.737331 -121.01009719 170.65006117 -132.88818359 141.84619141 C-142.88498993 115.62413647 -142.08750539 85.0123679 -130.83569336 59.35229492 C-125.08959179 46.95474173 -117.34045974 36.92210009 -108 27 C-107.19175781 26.09507813 -107.19175781 26.09507813 -106.3671875 25.171875 C-80.85354216 -2.26490944 -34.96242268 -12.36006352 0 0 Z " fill="#3F51B5" transform="translate(788,63)"/>
<path d="M0 0 C0.07014201 21.09709984 0.12301363 42.19418039 0.15543652 63.29137325 C0.17089248 73.08759908 0.19195771 82.88375237 0.22631836 92.67993164 C0.25625962 101.22023222 0.27558424 109.76048025 0.28226548 118.30083185 C0.28616973 122.82111878 0.29531876 127.3412554 0.31719017 131.86149406 C0.33763003 136.1205836 0.3438187 140.37946165 0.33932304 144.63859558 C0.3401449 146.19739496 0.34606578 147.75620178 0.35761642 149.31495857 C0.46980796 165.24335277 -3.41919607 176.80136023 -14.43359375 188.5234375 C-36.85209359 210.15711923 -66.37716002 217.8396744 -96.71484375 217.3125 C-116.21244948 216.6160533 -131.58171945 207.08350129 -144.9296875 193.38671875 C-150.35870226 187.12798664 -153.96595251 179.6599495 -157 172 C-157.27714844 171.30519531 -157.55429688 170.61039063 -157.83984375 169.89453125 C-165.78799784 148.18539397 -163.80269758 122.89263352 -154.25 102.125 C-150.87400332 95.17626293 -146.89617602 88.99102754 -142 83 C-141.59410645 82.49017578 -141.18821289 81.98035156 -140.77001953 81.45507812 C-119.82882329 55.1938565 -91.53626195 38.9258359 -62 24 C-60.89084229 23.43732422 -60.89084229 23.43732422 -59.75927734 22.86328125 C-43.52462249 14.70492762 -26.37965278 8.37788177 -9.32421875 2.16796875 C-8.18428467 1.75184326 -7.04435059 1.33571777 -5.86987305 0.90698242 C-3 0 -3 0 0 0 Z " fill="#FEFEFE" transform="translate(2084,771)"/>
<path d="M0 0 C2.01882674 -0.00961117 4.03659105 -0.04065578 6.05517578 -0.07226562 C18.38593746 -0.12047975 30.32286803 1.45327187 41.73876953 6.42773438 C42.44662598 6.7303418 43.15448242 7.03294922 43.88378906 7.34472656 C64.86923591 16.63250983 79.45909666 33.8204489 87.82080078 54.87695312 C94.72960748 73.76102478 100.05126953 95.0396448 100.05126953 115.24023438 C32.40126953 115.24023438 -35.24873047 115.24023438 -104.94873047 115.24023438 C-104.25199463 107.57614017 -103.38839486 101.00766737 -101.32373047 93.74023438 C-101.05866699 92.79462646 -100.79360352 91.84901855 -100.52050781 90.87475586 C-91.79614348 60.45648384 -76.59197358 28.10217742 -47.68945312 11.97998047 C-31.97419022 3.76395309 -17.79756819 0.05095939 0 0 Z " fill="#FDFDFD" transform="translate(4886.94873046875,618.759765625)"/>
</svg>
